<?xml version="1.0" encoding="utf-8"?>
<!-- Generator: Adobe Illustrator 19.0.0, SVG Export Plug-In . SVG Version: 6.00 Build 0)  -->
<svg version="1.1" id="Layer_1" xmlns="http://www.w3.org/2000/svg" xmlns:xlink="http://www.w3.org/1999/xlink" x="0px" y="0px"
	 viewBox="0 0 600 200" style="enable-background:new 0 0 600 200;" xml:space="preserve">
<style type="text/css">
	.st0{fill:#FFFFFF;}
</style>
<g id="XMLID_2_">
	<path id="XMLID_3_" class="st0" d="M17.5,122.1h2.8v1.2l2.8-0.6c0.7,0,1.1,0.2,1.1,0.6l2.8-0.6h2.8c0.7,0.1,1.1,0.4,1.1,1.1
		c1.3-0.7,2.4-1.1,3.4-1.1l1.1,0.6c0.2-0.8,0.6-1.2,1.2-1.2v1.2c0,0.7-0.4,1.1-1.2,1.1c-0.4,0-0.9-0.2-1.7-0.6l-3.3,0.6v1.2h0.5
		l5.7,0.5c0-0.3,0.2-0.5,0.5-0.5v0.5c0,0.8-0.4,1.2-1.1,1.2l-1.2-0.6v0.6l0.6,1.1c-1.2,0.4-1.9,1.1-2.2,2.2l-1.1-0.5h-0.6
		c0.4,0.7,0.6,1.3,0.6,1.7c2.6-1.3,3.9-2.6,3.9-3.9h0.6v2.2c-1.2,0-1.8,0.4-1.8,1.1v0.6l1.2-0.6c1,0.2,2,1.2,2.8,2.8
		c-4.3,0.4-7.9,0.9-10.6,1.7V134h0.5c0.4,0,0.6,0.2,0.6,0.6c0.6-0.4,2.3-0.8,5.1-1.2v-0.6c-1.7,0-3.6-0.6-5.7-1.7
		c-0.7,0.4-1.3,0.6-1.7,0.6v1.1h1.7c-0.3,1.2-1.4,1.8-3.3,1.8c0-0.9-0.2-1.6-0.6-2.2c0.4,0,0.6-0.2,0.6-0.6c-1.5,0-2.2-0.9-2.2-2.8
		H22v1.2h-1.1c-0.8,0-1.2-0.4-1.2-1.2c0.8-0.4,1.4-0.6,1.8-0.6v-0.5h-1.8v-0.6l1.2-1.7c-2.3-0.8-3.8-1.2-4.5-1.2v-0.6
		C17.1,123.8,17.5,123.2,17.5,122.1z M23.1,125.5v0.5l0.6,1.2c1.5-0.6,2.2-1.1,2.2-1.7V125L23.1,125.5z M23.1,132.3h1.1v1.1h-1.1
		V132.3z M23.7,118.2h0.5v1.1h-0.5V118.2z M27,117.6h1.2v1.2H27V117.6z M27,119.3h0.6v1.2H27V119.3z M27,128.9v1.2h0.6v-1.2H27z
		 M28.2,125.5v0.5h1.7v-0.5H28.2z M30.5,118.2c0.6,0.4,1.5,0.6,2.7,0.6v1.1h-1.7c-0.7,0-1.1-0.4-1.1-1.1V118.2z M31.5,128.9v0.6h1.2
		v-0.6H31.5z M34.9,115.4H36v1.2h-2.2C33.9,115.8,34.2,115.4,34.9,115.4z M35.4,132.3v0.5c0.2,0.8,0.6,1.2,1.2,1.2v-1.7H35.4z
		 M36,114.3h0.6v1.1H36V114.3z M36,120.5h1.1c0,0.4,0.2,0.9,0.6,1.7h-0.6c-0.7,0-1.1-0.4-1.1-1.1V120.5z M74.7,41.9
		c0,0.8-2.2,1.7-6.7,2.8l0.6,1.1c-0.7,0.4-1.3,0.6-1.7,0.6V47H68v0.6l-0.6,1.1H68c2.6-0.2,3.9-0.6,3.9-1.1v-1.8
		c1.4,0,2.6-0.6,3.4-1.7l2.2,0.6c2.4-1.5,4.1-2.2,5.1-2.2c0.3,0,0.5,0.2,0.5,0.6l1.2-0.6h1.1c0,1.1,1.1,1.7,3.4,1.7v-2.2l3.9,0.6
		v1.1l-2.8-0.5v1.1c5.6,1.2,8.4,2.7,8.4,4.5h1.2v-2.2h1.1c0,1,1.3,2.9,3.9,5.6c0-0.3,0.2-0.5,0.6-0.5v1.1c-0.4,0.7-0.6,1.3-0.6,1.7
		c1.7,0.8,2.7,1.5,2.8,2.2l-1.7,2.8c-3.4-0.2-5.1-0.6-5.1-1.1c-6.7,0.7-10.1,1.3-10.1,1.7v0.6c-0.4,0-0.9-0.2-1.7-0.6
		c-4,1.5-7.8,2.2-11.2,2.2v-0.6h-1.7c-0.9,0.8-2,1.2-3.4,1.2l0.6,1.1c1.5-0.7,2.6-1.1,3.3-1.1l0.6,1.1c-1.8,2.1-4.3,3.6-7.3,4.5
		c-2.6,3.9-3.9,6.5-3.9,7.8v1.2c0.8,0,1.9,0.8,3.4,2.2c0-0.4,0.2-0.6,0.5-0.6v1.2l1.2-0.6c2.4,1.5,3.9,2.2,4.5,2.2l-0.6,1.1v0.6
		c0.5,0,4.2,2.1,11.2,6.2h0.6l-4.5-3.3h0.6c7.4,0,16.2,8.8,26.3,26.4c1.9,4,2.8,6.4,2.8,7.2c-0.2,3.4-0.8,5.1-1.7,5.1l0.6,1.1v1.2
		l-6.3,3.3V130c0.4-0.7,0.6-1.5,0.6-2.2h-4.5c0,0.9-0.9,1.9-2.7,2.7h-0.6v-2.2l-1.2,0.6h-0.5c0-0.7-0.2-1.1-0.6-1.1l-1.2,0.5
		l-2.7-1.1c-0.4,0.7-0.6,1.3-0.6,1.7l-1.2-0.6h-1.1c0,0.9-0.8,1.5-2.2,1.8c0,0.7-0.4,1.1-1.2,1.1h-0.5l0.5-1.1
		c0-0.8-0.4-1.2-1.1-1.2h-1.1l0.5,2.8l1.2-0.6v1.7l-2.2,0.6l0.6-1.1v-0.6c-1.9,0-2.8-0.4-2.8-1.2c-1.9,1.2-3.8,1.8-5.7,1.8
		c0-0.8-0.2-1.2-0.5-1.2c-1.3,0.4-2.1,0.6-2.2,0.6c-0.4,0-0.6-0.2-0.6-0.6c-1.3,0.4-3.4,0.6-6.2,0.6v0.6h1.1v1.1h-2.2v-1.1h-1.7
		l0.6,1.1h-1.2c-1.8,0-2.7-0.4-2.7-1.1l-6.7,0.5h-6.2l-1.2-0.5c0,0.3-0.2,0.5-0.6,0.5l-0.5-1.1v-0.6l3.3,0.6h0.6v-0.6h-1.2V130
		l1.2,0.5h2.2l-0.6-1.1l-1.1,0.6h-0.6c-0.4,0-0.6-0.2-0.6-0.6l-1.1,0.6H45c0-0.8-0.6-1.2-1.7-1.2v-1.1c0.1-0.8,0.4-1.2,1.1-1.2
		c0.8,0,1.2,0.8,1.2,2.2h1.7l3.9-0.6c0,0.7,0.6,1.9,1.7,3.4l1.2-0.6v0.6c0.6-0.4,1.5-0.6,2.7-0.6l-0.5-1.1c0.3,0,0.5-0.2,0.5-0.6
		l-1.1-0.6v1.7h-0.6v-1.1H54l0.5,1.1H54l-1.2-0.5c0.4-0.8,0.6-1.4,0.6-1.8H54l1.1,0.6v-0.6c0-0.7-0.4-1.1-1.1-1.1h-4.5V126
		c1.5,0,2.2-0.7,2.2-2.2h1.7c0.7,0,1.1,0.6,1.1,1.8h1.8l-0.6-1.2l1.1-0.6c0.4,0,0.6,0.2,0.6,0.6c0.6-0.4,1.6-0.6,2.8-0.6v-0.5
		c-0.9,0-1.9-0.4-2.8-1.2c0,0.4-0.2,0.6-0.6,0.6c0-0.6-0.6-1.1-1.7-1.7H54l0.5,1.1H50v-0.6h-0.5c0,1.3-0.2,2.2-0.6,2.8H50v1.2h-4.4
		V125h1.7v-1.2h-1.7c0-0.9,0.9-1.5,2.7-1.7v-0.6h-1.7c-0.7,0.4-1.3,0.6-1.7,0.6v-1.1l3.9-1.2c0,0.4,0.2,0.6,0.6,0.6l0.5-1.2l1.2,0.6
		h1.1l4-0.6v-0.5c-1.2,0-1.8-0.2-1.8-0.6l-1.1,0.6l-2.8-0.6c0,0.4-0.2,0.6-0.6,0.6c0-0.4-0.2-0.6-0.5-0.6c0,0.7-0.4,1.1-1.2,1.1
		c-2-0.3-3.6-0.5-5-0.5v0.5c-0.7-0.3-1.5-0.5-2.2-0.5l0.5-1.2c-1.1,0-1.7-0.2-1.7-0.5l-1.1,0.5h-1.2c0-1.1,2.8-1.7,8.4-1.7v-1.1h0.6
		v1.1l5.6-0.6v-1.1l-1.1,0.6h-2.2c-0.7,0-1.1-0.4-1.1-1.2v-0.6h1.7l2.7-0.5v1.1h1.2v-1.1h6.2c0-1.2,0.2-1.8,0.6-1.8
		c1.9,0,4.7,0.2,8.4,0.6c1,0,2.7-0.6,5.1-1.7v0.6l1.1-0.6c0.4,0,0.6,0.2,0.6,0.6c1.6-1.4,5.7-2.9,12.3-4.5l-1.7-2.2
		c0.4,0,0.6-0.2,0.6-0.6l-1.2-0.6c-0.7,0-1.1,0.6-1.1,1.7h-0.6c-0.7,0-1.1-0.4-1.1-1.1c0.7,0,1.1-0.4,1.1-1.1
		c-0.4,0-0.6-0.2-0.6-0.6c0.4,0,0.6-0.2,0.6-0.6h-1.1v1.2h-1.2l0.6-2.8c-0.9,0-1.6-0.2-2.2-0.6v1.2c-1.9,0-2.8-0.4-2.8-1.2l-1.1,0.6
		l-3.4-0.6l0.6-1.1c-0.4,0-0.6-0.2-0.6-0.6c0.8,0,1.2-0.4,1.2-1.2v-1.1c-0.8,0-1.2,0.6-1.2,1.7h-0.6c-1.8-0.6-2.7-1.7-2.7-3.3
		L68,93.5h-1.1c0-1-0.9-2.1-2.8-3.3V89L63,89.6h-0.6V89l0.6-1.1v-0.6h-0.6v1.2h-1.2v-0.6l0.6-1.2c-0.9-1.1-2.1-1.7-3.3-1.7L59,84
		c-0.3-0.7-0.5-1.5-0.5-2.2h-0.6c0,0.4-0.2,0.9-0.6,1.7c0.8,0.2,1.2,0.6,1.2,1.2h-0.6c-1,0-2.2-2.1-3.4-6.3c-0.9,0-2.1-2.2-3.3-6.7
		h-0.6v-6.2h-1.1v-1.1c0-0.9,0.2-1.6,0.5-2.2c-0.3-0.6-0.5-1.4-0.5-2.2c1.1-3.9,2.6-6.3,4.5-7.3c0-1.1,2.4-3,7.2-5.6
		c0.8-0.4,1.4-0.6,1.8-0.6c0,0.4,0.2,0.6,0.5,0.6c0.1-2.3,1.2-3.4,3.4-3.4v0.6c1.1,0,1.7-0.6,1.7-1.7h0.6c0.3,0,0.5,0.2,0.5,0.6
		C71.4,42.3,73.1,41.9,74.7,41.9z M37.7,122.1h2.2v0.6c-0.4,0-0.9,0.2-1.7,0.6L37.7,122.1z M39.9,113.7h0.6v0.6
		c0,0.7-0.4,1.1-1.2,1.1h-0.5v-0.5C39,114.1,39.3,113.7,39.9,113.7z M43.4,125l0.5,1.1h-1.7v0.6l0.6,1.2c-0.3,0-1.5,0.2-3.4,0.5
		v-0.5c0-0.4,0.2-0.6,0.6-0.6l-0.6-1.2v-0.5L43.4,125z M41.1,121.1c0.7,0.1,1.1,0.4,1.1,1.1v0.6c-0.7,0-1.1-0.4-1.1-1.2V121.1z
		 M42.2,117.1v1.1l2.8-0.6l1.1,0.6l0.6-1.1H42.2z M42.8,128.9c0.7,0.2,1.1,0.6,1.1,1.2v0.5c-0.7,0-1.1-0.4-1.1-1.1V128.9z
		 M43.8,123.3h0.6v1.1h-0.6V123.3z M45.6,113.1h0.5v1.2h-0.5V113.1z M47.3,117.1v0.5h3.3v-0.5c-1.1,0-1.7-0.2-1.7-0.6
		C48.2,117,47.7,117.1,47.3,117.1z M51.2,131.1v0.6h1.1v-0.6H51.2z M52.2,125v1.1h0.6V125H52.2z M54,71.1v1.7h1.1v-0.6
		C55.1,71.5,54.7,71.1,54,71.1z M54.5,54.8h0.6c0.8,0,1.2-0.4,1.2-1.1v-0.6C55.7,53.1,55.1,53.7,54.5,54.8z M54.5,57.6v1.1h0.6v-1.1
		H54.5z M57.3,60.9v1.2h0.6c2.4-3.2,4.2-5.4,5.6-6.7h-1.1C60.7,56.2,59,58,57.3,60.9z M57.3,118.8v0.5c5.7-0.7,8.7-1.1,9-1.1
		l-0.6-1.1l-1.1,0.5c-0.4,0-0.6-0.2-0.6-0.5C59.6,117.5,57.3,118,57.3,118.8z M57.9,119.9l-0.6,1.2v0.5c0.4,0,0.6-0.2,0.6-0.5
		l1.1,0.5l4-0.5c0,0.3,0.2,0.5,0.5,0.5v-1.1c-0.7,0-1.1-0.2-1.1-0.6l-2.8,0.6H59L57.9,119.9z M57.3,128.9v1.2h0.6v-1.2H57.3z
		 M57.9,125v0.6H59V125H57.9z M58.5,56c4.3-3.8,6.7-5.7,7.2-5.7v-1.1C60.9,51.1,58.5,53.4,58.5,56z M58.5,128.9v1.2H59v-1.2H58.5z
		 M60.2,126v1.2h0.6V126H60.2z M61.2,126.6l0.6,1.2c-1.1,0-1.7,0.4-1.7,1.1c0.7,0,1.1,0.6,1.1,1.7h0.6v-2.7h0.6v1.7h1.7
		c-0.9-1.9-1.7-2.8-2.2-2.8H61.2z M61.2,48v1.8h0.6V48H61.2z M61.8,122.7v1.1H63c0.7,0,1.1-0.4,1.1-1.1H61.8z M62.4,59.3v1.2H63
		v-1.2H62.4z M63.5,47.6v1.7c0.7-0.4,1.3-0.6,1.8-0.6v-1.1H63.5z M70.8,123.8v0.6l1.1,2.2h-0.5c-0.7-0.4-1.5-0.6-2.2-0.6
		c-0.8,1.7-1.2,2.6-1.2,2.8c-1.3-1.1-2.6-1.7-3.9-1.7h-0.6v0.6c2.3,1.5,4.3,2.2,6.2,2.2v0.5c0.7-0.3,1.5-0.5,2.2-0.5v-0.6l-0.5-1.2
		c0.6-0.3,1.5-0.5,2.7-0.5v-1.2l-1.1,0.6c-1.1-1.4-1.7-2.6-1.7-3.4H70.8z M64.7,124.4c0.1,0.8,0.4,1.2,1.1,1.2v-1.2H64.7z
		 M65.3,56.4V57h1.1c1.1-1.9,2.8-2.8,5.1-2.8v-1.1h-0.6L65.3,56.4z M65.3,130v0.5h1.7V130H65.3z M65.7,45.3v0.5h1.2v-0.5H65.7z
		 M65.7,47V48h0.6V47H65.7z M66.9,118.8c0.1,0.7,0.4,1.1,1.1,1.1h0.6c0-0.7-0.4-1.1-1.2-1.1H66.9z M68,121.5c0,0.8-0.4,1.2-1.1,1.2
		v0.6H68l0.6-1.2v-0.6H68z M68,124.4v0.6h1.2v-0.6H68z M69.2,45.3h1.1v1.1c0,0.8-0.4,1.2-1.1,1.2h-0.6V47
		C69,46.3,69.2,45.7,69.2,45.3z M70.8,117.6h1.1v-1.1C71.2,116.6,70.8,117,70.8,117.6z M70.8,122.1v0.6h1.1v-0.6H70.8z M77.6,54.8
		l0.6,1.2h-0.6c-0.8,0-1.2-0.4-1.2-1.2L74.1,56l0.6,1.1l-2.2,2.2h0.6l3.3-1.7v1.1h1.2c0-1.5,0.4-2.2,1.1-2.2c0.4,0,0.6,0.2,0.6,0.6
		l2.8-0.6h2.7c0.8,0.2,1.2,0.6,1.2,1.2l-0.6,1.1H86c0.7,0,2-0.4,3.9-1.1c0.6,0.4,1.4,0.6,2.2,0.6h1.2L95,57H96l1.2,0.6l0.6-1.2v-1.1
		L96,56.4l-0.5-1.1c0.7,0,1.1-0.4,1.1-1.2c-2.2,0-3.3-0.2-3.3-0.5l-1.2,0.5l-1.1-0.5c-0.4,0.7-0.6,1.3-0.6,1.7
		c-1.3-0.8-2.2-1.2-2.8-1.2v-0.5l1.2-1.8h-1.2C86.7,51.9,83.3,52.9,77.6,54.8z M72.5,125.5h1.2v-1.2
		C72.9,124.5,72.5,124.9,72.5,125.5z M72.5,128.9v1.2h1.2v-1.2H72.5z M73.7,96.9v0.6h1.1v-0.6H73.7z M74.1,122.1
		c3-0.4,4.5-0.9,4.5-1.7h-1.1C75.3,120.9,74.1,121.4,74.1,122.1z M75.3,45.8L74.7,47v0.6c0.9-0.8,1.7-1.2,2.2-1.2v-0.6H75.3z
		 M74.7,125.5v0.5h1.7v-0.5H74.7z M74.7,128.9v0.6H77v-0.6H74.7z M75.3,59.9v0.6h1.1v-0.6H75.3z M75.9,51.9v0.6H77v-0.6H75.9z
		 M75.9,126.6v1.2H77C77,127,76.6,126.6,75.9,126.6z M83.7,49.2l0.6,1.1h-1.7c0-0.7-0.2-1.1-0.6-1.1c-0.9,0-2.8,0.4-5.7,1.1v0.6
		c0.8,0,1.2,0.6,1.2,1.7h0.6l1.1-0.6l-0.6-1.1v-0.6h1.2v1.2c2.1,0,4.9-0.4,8.4-1.2v-0.5H87c0,0.3-0.2,0.5-0.5,0.5v-1.1
		c3.5-0.8,5.6-1.2,6.2-1.2c2,0.4,3.7,0.6,5.1,0.6c0-1.1-2.6-1.7-7.9-1.7v0.6L88.8,47h-0.6C85.2,48,83.7,48.8,83.7,49.2z M82.1,126.6
		h-1.2v-1.1h-3.3v1.1c1.5,0,2.8,0.4,3.9,1.2c0-0.6,0.9-1.3,2.8-2.2l3.9,0.5l-0.6-1.1c0.8,0,1.2-0.4,1.2-1.2H86
		C83.4,124.9,82.1,125.8,82.1,126.6z M77.6,128.9v1.2h0.6v-1.2H77.6z M78.2,45.3v0.5h1.1v-0.5H78.2z M79.2,59.9v0.6h1.7v-1.2
		C80.2,59.7,79.6,59.9,79.2,59.9z M79.2,127.8v1.1h0.6v-1.1H79.2z M81.5,59.3v0.6h0.6l2.7-0.6v-1.1C83.3,58.9,82.2,59.3,81.5,59.3z
		 M88.8,39v0.6l1.1-0.6c0.8,0.2,1.2,0.6,1.2,1.2v0.6c-1.2,0-1.8-0.2-1.8-0.6l-2.7,0.6h-2.8v-1.2h1.1L88.8,39z M86,53.7h0.6v1.1h-1.8
		C84.9,54.1,85.3,53.7,86,53.7z M89.9,55.4v1.1c0,0.8-0.4,1.2-1.1,1.2v-1.2C88.9,55.7,89.2,55.4,89.9,55.4z M92.1,130.5v1.2
		c-0.6,0-1.3,0.4-2.2,1.1l-0.6-1.1v-0.6L92.1,130.5z M89.9,51.5l0.6,1.1c-0.4,0-0.6,0.2-0.6,0.6h1.7c0.9,0,1.6-0.2,2.2-0.6
		c0.8,0.4,1.4,0.6,1.8,0.6c0.7-0.4,1.3-0.6,1.7-0.6v-1.1h-2.8c-0.4,0-0.6-0.2-0.6-0.6C93.3,51.3,92,51.5,89.9,51.5z M89.9,122.7v1.7
		h1.7c0.8,0,1.2-0.4,1.2-1.1l-1.2-0.6H89.9z M92.7,128.9h0.6v1.2h-0.6V128.9z M94.4,128.9H95c0,0.8,0.4,1.2,1.1,1.2v1.1l-2.7,0.6
		v-0.6C94,130.2,94.4,129.5,94.4,128.9z M93.8,39.6c0.8,0.2,1.2,0.6,1.2,1.2h-1.2V39.6z M95,122.7H96v-1.2
		C95.3,121.7,95,122.1,95,122.7z M96.6,127.2v0.6c0.8,0,1.2-0.4,1.2-1.2V126C97,126.2,96.6,126.6,96.6,127.2z M98.3,56v0.5
		c0.8,0,1.2,0.4,1.2,1.2h0.6c0.3,0,0.5-0.2,0.5-0.6l1.2,0.6l1.1-0.6c0.2,0.8,0.6,1.2,1.2,1.2h0.5V57l-3.9-1.1H98.3z M99.5,126.6v0.6
		h1.7V126C100.4,126.4,99.9,126.6,99.5,126.6z"/>
	<path id="XMLID_89_" class="st0" d="M139.1,45.3c0.3,0.6,0.5,1,0.5,1.3l2.4-0.6l0.1,1.4l-0.5,0.9l1.1,0.5c0-0.6,0.3-1,0.8-1.1
		l0.1,0.9l1.3-1.1h0.5c0.1,1.3,0.9,2.2,2.6,2.7l0.1,1.4l0.5-0.1l-0.1-1.4h0.9v0.5l-1.3,2.5l0.1,0.5l0.9-0.1l-0.1-1.4h0.9
		c-0.6,3.8-1.3,5.7-2,5.8V57l0.4-0.9h-0.9l-0.4,2.4L148,58v0.5c-1.3,5.6-2.4,8.7-3.1,9.2l-0.1-0.9l0.5-0.9l-1.5-0.9l-0.5,0.1v0.5
		h0.4c0.4,0,0.6,0.1,0.7,0.4c-0.2,0.5-0.4,0.9-0.4,1.2v0.2c0.6,0.1,0.9,0.4,0.9,0.9l0.1,2.4h-0.9l0.5-0.9l-1.9,0.1v0.9h0.2
		c0.8,0,1.2,0.4,1.3,1.3h0.5l1.4-1.1v0.9l-0.8,1.5h0.1c0.2,0,0.4,0.1,0.4,0.4c-0.6,0.2-0.8,0.5-0.8,0.9v0.6c0.1,0.3,0.2,0.5,0.5,0.5
		c0,1.3-0.4,1.9-1.2,1.9v1.7c0,1.1-0.5,2.5-1.5,4.1l0.6,0.9c-0.3,0.6-0.5,1.1-0.5,1.4h0.9c0-0.6,0.4-1.3,1.3-2l0.9,0.4h0.5
		c0.2,0,1.6-1,4.1-3.1c0.6,0.2,1.2,0.4,1.9,0.4v-0.1c0-0.9,0.6-1.3,1.8-1.4v0.5c0.5-0.4,1.4-0.6,2.8-0.7v-0.5h-0.9l-0.1-1.4l1.4,0.9
		l0.5-0.1v-0.9h1.4l-0.5,0.9L159,79l0.9-0.1l-0.6-0.8l0.9-0.1c1.9,0.2,2.9,0.6,3,1.2l0.9-0.5c0.6,0,0.9,0.3,0.9,0.8l0.9-0.5
		c6.5,1.7,9.7,3.5,9.8,5.4l0.9-0.6l0.6,0.9v1.4l-0.4,0.9l0.9,0.5v0.9c0,1.6-0.4,2.4-1.2,2.5l0.7,2.2l-1.4,0.1l-0.2-3.3h-0.5
		c0,3.2-0.6,4.8-1.7,4.9l0.7,2.4c-1.3,9.2-2.5,13.9-3.8,14.1c-0.8,0-1.2,0.7-1.2,2.1v0.7l0.8-0.5h0.5l0.2,2.7h0.5l0.4-2.4l1.4-0.1
		l0.1,1.9c0,0.6-0.5,1-1.4,1.1c0.2,0.6,0.5,0.8,0.9,0.8h0.1c-1.2,6.8-2.1,10.2-2.6,10.2l0.5,0.9l0.1,0.9c0,0.7-0.1,1.3-0.4,1.9
		l0.5,0.9c-0.2,1.6-0.4,2.4-0.7,2.4c0,0.3,0.2,0.5,0.5,0.5c-0.1,2.2-0.3,3.3-0.7,3.3l0.6,0.9l0.1,1.9c0,0.7-0.1,1.3-0.4,1.9
		c0.3,0.6,0.5,1.2,0.6,1.9h0.5l-0.1-1.9l0.9-0.1c0,0.3-0.2,1.9-0.6,4.9c1,1.1,1.9,2.9,2.7,5.4c0.2,0,1.5,0.4,3.9,1.2
		c0.5-0.4,1.1-0.6,1.8-0.6l0.1,0.5c0.4-0.4,1.1-0.6,2.2-0.7c1.7,0.2,2.5,0.5,2.5,0.8c0.2,0,0.4-0.1,0.4-0.4v-0.1
		c2.8,0.4,4.5,0.6,5.3,0.6l-1.3,2.4h0.9l0.1,0.9c-3.3,0.2-5,1.4-5,3.4v0.2l-2.4-0.4l-0.5,0.1l0.1,1.4h-0.5l-0.1-0.9l-2.4,0.1
		l-0.9,0.6c-0.3-0.9-1.1-1.3-2.5-1.3h-0.4l-0.1-0.5l0.5-0.9H176l-1.9,0.7c-0.6-0.3-1.1-0.5-1.4-0.5l-0.9,0.6c-1.6,0-2.4-0.4-2.5-1.3
		l-0.5,0.1l0.1,1.4h-0.5c-0.6,0-1-0.5-1.1-1.4l-0.9,0.1l0.1,0.9l-0.9,0.1c-0.3,0-0.5-0.2-0.5-0.5l-0.9,0.5c-1.2-1.3-2.3-2.1-3.4-2.1
		c-2.8-1.5-4.9-3.6-6.2-6.2c0.3,0,0.5-0.2,0.5-0.5c-1.7,0-3.4-3.9-5.1-11.6l-0.4-5.2v-0.1c0-0.2,0.1-0.4,0.4-0.4l-0.5-0.9v-0.6
		c0-0.2,0.1-0.4,0.4-0.4c0-0.3-0.2-0.5-0.5-0.5c-0.1-0.7-0.1-1.4-0.1-2.1c0-4.2,0.8-8.6,2.4-13.1c1.3-9.9,2.6-14.9,3.7-15l-0.5-0.8
		c0.2-1,0.5-1.5,0.8-1.5c-0.4-0.6-0.6-1-0.6-1.4c0.6-1,0.8-2,0.8-2.8c-1.7,0.6-4,2.3-6.9,5.2h-0.5l0.5-0.9h-0.5
		c-0.5,0.1-2.2,1.8-5.3,5.2h-0.5l0.8-1.5l-0.1-1.4l-0.5,0.1c-0.8,0.9-1.2,1.9-1.2,3v0.4h0.5c-1.9,1.3-2.8,3.9-2.8,7.6
		c0,0.6,0,1.1,0.1,1.7v0.1c0,1.3-0.8,3.5-2.4,6.6c0,1.6-0.4,2.4-1.2,2.5c0.9,3.5,1.3,5.9,1.4,7l-0.9,0.1c0-0.2-0.4-1.9-1.3-5.1
		c0.2-0.6,0.4-1.1,0.4-1.5l-0.9,0.1l0.2-3.3l-0.2-2.8l0.5-0.9c-0.6,0-1-0.3-1.1-0.9l-0.1-1.9l1.4-0.1l-0.8-4.6
		c0.6-0.4,1.1-0.6,1.4-0.6c-0.6-0.7-1-1.6-1.1-2.7c-0.9,0-1.5,5.2-1.8,15.7h-0.9l0.2,3.3h0.5l-0.1-1.9h0.9l0.1,2.4
		c0,0.2,0.1,0.4,0.4,0.4h0.1c-0.2,0.6-0.4,1.1-0.4,1.4l-0.9,0.1l-0.1-0.9c-0.6,0.4-1,0.6-1.3,0.6l0.6,2.4l0.2,2.7l-0.5,0.1
		c-1.3-0.5-2.1-1.5-2.1-3.2h0.5c-0.7-0.9-1.1-2.1-1.2-3.3l-0.5,0.1v0.5c0,0.6-0.1,0.9-0.4,0.9l0.5,0.9l0.2,2.7l-0.9,0.1l-0.1-1.4
		h-0.5v0.2c0,0.8-0.3,1.2-0.8,1.3c0-0.7-1.3-1.7-4-3.1c-1.1-4.3-2.2-6.4-3.3-6.4v-0.5l0.9-0.1l-0.1-1.9l-0.9,0.1v-0.5
		c0-0.6,0.1-0.9,0.4-0.9l-0.6-2.4l-0.1-1.4c0.6-1.3,1.2-5.4,2-12.4l0.8-0.6l-0.5-0.9v-1.2c0-2.3,0.7-3.5,2-3.7v-0.9l-0.9,0.1
		c0.1-2.8,0.6-4.3,1.5-4.4l-0.6-0.9c0-0.9,0.7-3.9,2.2-8.8h-0.1c-0.2,0-0.4-0.1-0.4-0.4c0.8-1,1.7-3.2,2.8-6.4
		c0-0.3-0.2-0.5-0.5-0.5c0.9-5.1,1.9-7.7,2.8-7.8l-0.6-0.8c3-11.3,5.1-17,6.4-17C137.5,46.3,138.6,45.3,139.1,45.3z M120.9,124.4
		v0.9l-0.9,0.1C120,124.8,120.3,124.4,120.9,124.4z M130.6,127.4v0.9h0.5v-0.9H130.6z M131.3,111.8c0.2,0.6,0.5,0.8,0.9,0.8h0.1
		l-0.1-0.9L131.3,111.8z M133.5,129.2l0.9-0.1v1.4h-0.2c-0.5,0-0.7-0.3-0.7-0.8V129.2z M137.8,115.6v0.4c0,0.9-0.2,1.9-0.7,3h0.9
		l0.7-3.4L137.8,115.6z M137.4,90.5l0.9-0.1l0.7-3.3h-0.5C138.1,87.1,137.7,88.2,137.4,90.5z M137.6,126.5l1.4-0.1v0.2
		c0,0.5-0.3,0.8-0.8,0.8L137.6,126.5z M138,112.3v0.9l0.5-0.1v-0.9L138,112.3z M138.6,107.9l-0.4,2l0.1,0.8h0.5l0.4-2.4l-0.1-0.5
		H138.6z M138.3,122.2l0.9-0.1l0.1,2.4l-0.9,0.1V124c0-0.2,0.1-0.4,0.4-0.4l-0.5-0.9V122.2z M138.5,85.2l0.1,1.4h0.5l-0.1-1.4H138.5
		z M138.5,119.9l0.9-0.1l0.1,0.9h-0.2C138.9,120.7,138.6,120.4,138.5,119.9z M138.7,81.9l0.9-0.1l-0.1-0.9c-0.6,0.2-0.8,0.5-0.8,0.9
		V81.9z M138.9,82.8v0.9l0.9-0.1l-0.1-0.9L138.9,82.8z M139.8,84.1l0.6,0.9l-0.5,0.9h0.9l-0.1-1.9H139.8z M140.3,77.5l-0.4,0.9v0.5
		l0.9-0.6l0.9,0.5v-0.9C141.4,77.9,140.9,77.7,140.3,77.5z M140.1,79.9v0.9h0.5v-0.9H140.1z M140.2,81.3v0.9h0.5v-0.9H140.2z
		 M141.9,73.6v0.2c0,0.8-0.3,1.2-0.8,1.2c0.4,0.6,0.6,1.1,0.6,1.4h0.5l0.2-2.5v-0.5L141.9,73.6z M141.8,71.2c0,0.3-0.1,0.8-0.4,1.4
		h0.1c0.5,0,1.2,0.4,2.2,1.3l0.9-0.1c-0.3-0.6-0.5-1-0.5-1.4l-0.9,0.6h-0.5l-0.1-1.9L141.8,71.2z M142.7,77.3
		c0.6-0.3,1.1-0.5,1.4-0.6l-0.5-0.8c0.2-0.6,0.4-1.1,0.4-1.4C143.3,74.4,142.9,75.4,142.7,77.3z M145.5,69.9h0.9l0.1,0.9
		C145.9,70.9,145.6,70.6,145.5,69.9z M146.6,98.8l0.1,0.9h0.9l-0.1-0.9H146.6z M147.6,65.6l0.5,0.9v0.2c0,0.5-0.3,0.7-0.8,0.7
		l-0.5,0.1l-0.1-0.9C146.8,66,147.1,65.6,147.6,65.6z M149.3,97.3h0.5c0.6-0.1,0.9-0.4,0.9-1.1h-0.5
		C149.6,96.4,149.3,96.7,149.3,97.3z M153.4,94.5c0,0.6-0.3,1-0.9,1.1l0.1,0.5h0.5c0.6-0.4,1-0.6,1.3-0.6v-0.9H153.4z M154.5,131.5
		l0.1,0.9h0.5l-0.1-0.9H154.5z M154.6,132.9l0.1,1.4h0.9c-0.3-0.6-0.5-1.1-0.6-1.4H154.6z M154.8,94.5l0.9,0.4l-0.1-1.4
		c-0.6,0.2-0.8,0.5-0.8,0.9V94.5z M155,137.1v0.9h0.5v-0.9H155z M155.2,127.2v0.9h0.5v-0.9H155.2z M158,127l0.1,2.4
		c0.2,0.6,0.5,0.9,1.1,0.9v-0.4c0-0.4,0.1-0.6,0.4-0.7c-0.7-0.9-1.1-1.7-1.1-2.2H158z M159.3,119.3l-0.4,2c0.6-0.1,0.9-0.6,0.9-1.5
		l-0.1-0.5H159.3z M160,114.5l-0.4,2.4v0.5h0.5l0.4-1.9v-0.9H160z M160.3,133l0.1,0.5h0.9l-0.1-0.5H160.3z M160.4,126.9l0.1,2.4
		c0.3,0,0.8,0.1,1.4,0.4v-1.4h-0.1c-0.6,0-0.9-0.4-0.9-1.3H160.4z M161.1,124.4l0.1,0.9h1.4c-0.1-0.6-0.4-0.9-1.1-0.9H161.1z
		 M161.4,141.5l0.1,0.9l0.5-0.1l-0.1-0.9L161.4,141.5z M163.2,148.5l0.1,0.9c0.6-0.1,0.8-0.4,0.8-0.8v-0.2L163.2,148.5z M164,130.4
		v0.9h0.5v-0.9H164z M164,150.8h0.9l-0.1-0.9c-0.6,0.2-0.8,0.4-0.8,0.8V150.8z M164.1,125.7v0.5l0.9-0.1v-0.5L164.1,125.7z
		 M164.1,131.8v0.9l0.9-0.1v-0.9L164.1,131.8z M164.2,134.2c0.4,0.6,0.6,1,0.6,1.4l0.5-0.1l-0.1-1.4L164.2,134.2z M164.3,128.5
		l0.1,1.4l0.5-0.1l-0.1-1.4L164.3,128.5z M164.4,123.7h0.9l-0.1-0.9C164.7,122.9,164.4,123.2,164.4,123.7z M164.9,130.3v0.5h0.9
		v-0.5H164.9z M165.1,119.4l0.1,2.4h0.5l-0.2-2.4H165.1z M165.5,126l0.1,0.9h0.5L166,126H165.5z M165.6,112.8v0.5l0.9-0.1v-0.5
		L165.6,112.8z M166.1,113.6l0.1,1.9c0.7,0.7,1.1,1.3,1.1,1.9l0.5-0.1c0-0.3,0.1-0.8,0.4-1.4l-1.3,0.1l-0.1-0.5l0.5-0.9l0.9,0.4h0.5
		L168,114c0.3,0,0.5-0.2,0.5-0.5L166.1,113.6z M166.2,121.6v0.9h0.5v-0.9H166.2z M166.4,118.3c0.3,0.6,0.5,1.1,0.6,1.4h0.5v-0.2
		c0-0.4,0.1-0.8,0.4-1.3L166.4,118.3z M171.5,90v0.8c0,1.5-0.4,2.8-1.1,3.9c0.3,0,0.5,0.2,0.5,0.5c-0.5,0-1.1,1.5-2,4.4l0.6,0.9
		c0,0.2-0.9,3.6-2.7,10.2l0.2,1.9h0.5l-0.1-0.9l0.5-0.1l0.9,0.5l-0.1-1.4l-0.5-0.9c0.8-0.1,1.3-1.5,1.5-4.4c-0.3-0.6-0.5-1-0.5-1.4
		c0.8,0,1.6-2.1,2.4-6.3c-0.6,0-1-0.3-1.1-0.9c0.9-0.1,1.5-2,1.5-5.8l-0.1-0.9L171.5,90z M168.3,132.4v0.2c0,0.6-0.2,1.3-0.7,2.2
		c0.3,0.6,0.5,1.2,0.6,1.9c0,0.3-0.2,0.5-0.5,0.5l0.6,0.9l0.2,4.6l0.9,5.7h0.5l-0.1-0.5c-0.5-2.1-0.8-3.9-0.8-5.2l-0.4-5.2
		c0-0.3,0.2-0.5,0.5-0.5c0-0.3-0.2-0.5-0.5-0.5c0.1-1.2,0.1-2.1,0.1-2.8v-1.4H168.3z M170.6,117.1c-0.8,6.4-1.7,9.6-2.6,9.6
		c0.4,1.1,0.7,2.7,0.8,4.7h0.5V131c0-0.9,0.2-1.8,0.7-2.5l-0.6-0.8l2.1-10.7L170.6,117.1z M168.8,119.2l0.1,0.9h0.5l-0.1-0.9H168.8z
		 M171.2,112.3l0.1,1.4h-0.2c-0.5,0-0.7-0.3-0.7-0.8L171.2,112.3z M171.3,106.1c-0.5,1.5-0.7,2.4-0.7,2.8v0.1l0.9-0.1l0.2-2.4v-0.5
		H171.3z M171.6,131.7h0.9l0.1,1.4h-0.9L171.6,131.7z M172,103.8l0.1,0.9l0.5-0.1l-0.1-0.9L172,103.8z M172.2,147.8h0.5l0.1,0.9
		h-0.5L172.2,147.8z M172.9,110.3l1.1,0.5v-0.1c0-0.2,0.1-0.4,0.4-0.5l0.1,0.5c0,0.6-0.3,1-0.9,1.1l-0.5-0.9L172.9,110.3z
		 M173.9,103.7l0.9-0.1l0.1,0.9H174L173.9,103.7z M174,84.1l0.1,0.9h0.5l-0.1-0.9H174z M176.3,95.4h0.5c-0.6,1-0.8,2-0.8,2.8
		l-0.5,0.1l-0.1-1.9C175.4,95.7,175.7,95.4,176.3,95.4z M175.7,87.8v0.5h0.9v-0.5H175.7z M177.9,161.2l0.1,0.5l1.4-0.1l-0.1-0.8
		C178.8,161,178.3,161.2,177.9,161.2z"/>
	<path id="XMLID_159_" class="st0" d="M205.1,29.6c0.9,0.2,1.5,0.5,1.5,0.8c-0.6,1.1-0.8,1.9-0.8,2.5c0.8-0.4,1.2-1.2,1.2-2.4v-0.6
		l0.9-0.1h0.1c0.6,0,0.9,0.4,0.9,1.3c-0.2,0.6-0.4,1.1-0.4,1.4h0.5c0.6-0.3,1.2-0.5,1.9-0.6c0,0.2,0.1,0.4,0.4,0.4h0.1
		c0.2-0.5,0.4-1.1,0.4-1.8v-0.6l1.8-0.1l0.1,0.9h-0.9l0.1,0.5c0,0.3,0.2,0.5,0.5,0.5l-0.4,0.9c0.3,0.6,0.5,1.1,0.6,1.4l-0.8,2v0.5
		l0.5-0.1c0.1-1.3,0.5-1.9,1.3-2l0.1,0.9l-1.7,3.9h0.9l0.1,0.9l-0.9-0.5v0.9l-1.3,0.1l-0.1-1.4l-0.5,0.1v0.4c0,0.9-0.2,1.9-0.7,3
		c0.6,0,0.9,0.2,0.9,0.5l-0.4,0.9c0.7,0.9,1.1,1.7,1.2,2.2c-0.9,0.1-1.8,1.4-2.5,4l-0.5,0.1l-0.1-0.9l0.8-1.5l-0.1-0.5l-0.8,0.1
		c0,0.8-0.2,1.7-0.7,2.8h0.9v0.9l-0.9-0.5c-0.8,2-1.6,5.5-2.4,10.6h0.9l-0.6-0.9v-0.5l0.9-0.1l0.6,2.4l0.1,0.5l-0.5,0.9l-2.4-0.7
		l-0.2,2.4v0.5l0.8-0.5l0.1,0.5c-0.5,2.2-0.9,3.3-1.2,3.3l0.6,0.9l0.1,0.9h-0.1c-0.6,0-0.9-0.4-0.9-1.3c-0.5,0-1.2,2.3-2.2,6.9
		l0.8-0.6h0.5l0.1,0.5c-1.4,1.8-2.4,4.7-3.1,8.8l0.1,1.4h0.5v-1.1c0-1.2,0.2-1.8,0.7-1.9l0.9-0.1V85c0,2.1-0.4,5.2-1.1,9.1h-0.9
		c0.1-1.8,0.4-3.3,1.1-4.4l-0.1-1.4l-0.5,0.1c-0.6,2.6-0.9,4.4-0.9,5.4v0.4h-0.9v-0.9l-0.5,0.1l0.1,1.4c0.3,0.6,0.5,1,0.6,1.3
		c-1.2,0.3-1.8,0.8-1.8,1.5v0.6l0.5-0.1l-0.1-0.9h0.9l0.1,1.3c0.6,0,0.8-0.5,0.8-1.5v-0.4l0.9-0.1l-0.2,2.4l0.9,0.5V99
		c0-0.9,0.4-1.9,1.2-3.2l-0.6-0.9c0.5,0,0.9-0.7,1.2-2h-0.2c-0.5,0-0.7-0.3-0.7-0.8l-0.1-0.5c1.3-0.2,2-1.5,2-4.1v-1.3l2.8-10.6
		c-0.4-0.6-0.6-1-0.6-1.4l0.8-0.5l0.5-0.1l0.1,0.9h0.5l-0.1-0.9l0.9-0.1c-0.2,1.9-0.6,2.9-1.2,3l0.6,0.9l0.1,0.9v0.1
		c0,0.9-0.8,1.3-2.2,1.4l0.1,0.9l0.8-0.5c0.1,0.2,0.2,0.4,0.5,0.4h0.1c-0.4,2-0.9,3-1.7,3.1l0.1,1.4c0.2,0.6,0.4,0.8,0.8,0.8h0.1
		c0.1-1.9,0.5-2.9,1.2-3l0.1,0.5c-0.5,2.1-0.7,3.4-0.7,3.9l0.9-0.6v0.5c-0.5,0.8-0.9,2.9-1.3,6.3V94c2.8-1.5,4.5-3.4,5.2-5.7
		l1.1,0.4c0.5-0.3,1.1-0.5,1.8-0.6l-0.5-0.9l-0.1-0.5c2.4-0.2,4.8-2.1,7.1-5.8c1.3-0.2,3.7-2.2,7.1-6.3c0.4-0.1,3-2.5,7.9-7.3
		l0.5-0.1c0.3,0,0.5,0.2,0.5,0.5l1.8-1.2l0.6,0.9c-0.3,0-0.5,0.2-0.5,0.5l1.1,0.5c0-0.6,0.3-1,0.8-1.1h0.5c0.6,0,0.9,0.3,0.9,0.8
		l0.1,0.5l-0.4,0.9l0.9,0.5c0-0.7,0.3-1.1,0.8-1.1v0.5c-0.2,0.5-0.2,0.9-0.2,1.2v0.2h0.5l1.7-1.5c0.1,0.2,0.3,0.4,0.6,0.4l-0.5,0.9
		l0.1,1.4l0.9-0.5l0.9-0.1c0,0.3-0.2,0.5-0.5,0.5l1.7,1.8c0,0.3-0.2,0.5-0.5,0.6c0.5,1.2,0.7,2.2,0.8,3.2h0.5V77
		c0-0.7,0.2-1.1,0.7-1.2l-0.5-0.8l-0.1-0.5l1.4-0.1v0.4c0,1.4-0.8,2.9-2.4,4.5h-0.1c-0.2,0-0.4-0.1-0.4-0.4c-0.9,0.1-2.5,1.3-5,3.8
		h-0.5l0.6,0.8c-5.8,3.9-8.8,6.4-8.9,7.5h0.5c0.6-0.4,1-0.6,1.4-0.6v0.5c-2,2.1-3,3.3-3,3.6l0.9-0.1v0.9c-0.8,0.1-5.1,3.5-12.9,10.2
		c-0.5,0.1-1.7,1-3.5,2.7v-0.5c1.7-2.3,3.3-3.7,4.9-4.3l-0.1-0.5l-1.3,0.1c-3.4,3.2-5.8,4.8-7.2,5v-0.5l-2.4,0.6v0.5l1.9-0.1
		l0.1,0.9c-0.9,0.1-1.3,0.4-1.3,0.9v0.1l1.9-0.1v0.9c-1.3,0.1-2.4,1.1-3.1,3.1c-1,0.1-1.8,0.3-2.2,0.7l-0.9-0.5
		c-3.2,1.5-4.9,3.1-5.3,4.7v0.5h0.5v-0.1c0-0.8,1.3-2.1,3.9-4h0.5l0.1,0.9c-2.2,0.8-3.3,2.2-3.3,4.4v0.8c0,0.8-0.3,1.2-0.8,1.3
		l-0.1-0.5l0.5-0.9l-1.4,0.1L203,131h-0.9v-1.4c0-1,0.2-2.1,0.6-3.3l-0.6-0.9c0.2-0.5,0.4-0.9,0.4-1.4v-0.5
		c-1.6,0.2-2.4,2.3-2.4,6.4l0.7,1.8c-0.6,0.2-0.9,0.5-0.9,1.1l0.4,3.8l-0.9,0.1v-0.5l0.4-1.1l-0.9-0.4l0.2-2.4
		c0-0.3-0.2-0.8-0.6-1.4c0.2-1.3,0.4-1.9,0.8-1.9l-0.6-0.9l-0.1-0.9c0-1.6,0.3-2.4,0.8-2.5l-0.6-0.8l0.4-1.1l-0.9-0.4
		c-0.1,2.8-0.3,4.3-0.6,4.4l0.6,0.8c-0.2,1.3-0.4,2-0.8,2c0,0.3,0.2,0.5,0.5,0.5l-0.4,5.7h-0.5l-0.1-1.3v-0.1c0-0.2,0.1-0.4,0.4-0.5
		l-0.5-0.8v-0.1c0-0.2,0.1-0.4,0.4-0.5l-0.5-0.8l0.2-2.5l-0.1-0.9l-0.5,0.1l0.1,1.9h-0.9l0.2-3.3h0.5l0.9,0.4v-6.2l-0.9,0.1l0.6,0.8
		c-0.2,1.3-0.2,2.3-0.2,3.1v0.7l-0.9,0.1v-0.5l0.1-4.3c-0.5,0-1,1.3-1.5,3.9l-0.9,0.6c-0.1-1.2-0.4-1.8-0.9-1.8H192l0.4-1.1v-0.5
		l-0.9,0.1l0.8-1.5l-1.1-0.4h-0.5l-0.9,4.4c0.6,0.1,0.9,0.4,0.9,0.9l-0.8,0.5h-0.2c-0.5,0-0.8-0.3-0.8-0.8c0.1-1.2,0.1-2.1,0.1-2.8
		v-0.9l-0.9,0.5l-0.5,0.1l0.4-2.4c-0.4-0.6-0.6-1.1-0.6-1.4c0.2,0,0.4-0.1,0.4-0.4v-0.1h-0.1c-0.9,0-1.3-0.6-1.4-1.8
		c0.4-0.8,0.6-1.7,0.6-2.8v-1.1l0.9-0.1l0.1,0.5l-0.5,1.1l0.5-0.1l1.3-1.1l-0.5-0.8c1.4-1.6,2.1-3.8,2.1-6.6c0-0.7,0-1.4-0.1-2.1
		c-0.3,0-0.5-0.2-0.5-0.5h0.9l-0.1-1.4l-1.1-1.4h0.5l0.9,0.4c0-0.3,0.2-0.5,0.5-0.5l-0.6-0.9c0.9-1.4,1.5-4.1,1.7-8.2l1.4-0.1
		l0.1,0.9l-0.9,0.1c0,0.3,0.2,0.8,0.6,1.3c-0.5,6.4-1.1,9.6-2,9.7c0,0.3,0.2,0.5,0.5,0.5l-0.7,7.1c0.4,0,0.9-1,1.5-3
		c-0.2,0-0.4-0.2-0.5-0.5c0.6,0,1.3-1,2.1-3l-0.1-0.9l-0.5-0.9l0.8-0.5c-0.7-1.1-1.1-2.4-1.2-3.8l0.8-0.5c0,0.2,0.1,0.4,0.4,0.4h0.1
		c0.5-2.1,0.7-3.3,0.7-3.8l0.9-0.1V94l-0.2,2.4c0.7-0.1,1.1-1.4,1.1-3.9l-0.5,0.1l-0.9,0.5v-0.9c0.2-0.6,0.4-1.1,0.4-1.4l-0.9,0.1
		l0.1,1.4H195c0.8-5.4,1.5-8.2,2.1-8.2l0.1,1.4c0,0.6-0.3,0.9-0.9,0.9l0.6,0.9l-0.4,0.9v0.5h0.5v-0.2c0-0.8,0.3-1.2,0.8-1.3l0.9,0.4
		h0.5v-0.5H199c-0.8,0-1.2-0.3-1.3-0.8V86c0-0.9,0.6-2.1,1.7-3.7l-0.1-0.5l-0.9,0.1v-0.6c0-0.6,0.4-0.9,1.3-0.9l-0.2-2.4l-1.7,2
		l-0.2-2.4H197l-2.2,12.2h-0.9c0.2-0.8,0.2-1.6,0.2-2.5v-0.8h-0.5l-0.1-0.9l0.9,0.5l0.5-0.1l-0.7-2.2c0.5-2.6,0.9-3.9,1.2-3.9
		l-0.6-0.9l-0.2-2.8l1.4-0.1l-1.1-1.3c0.9-0.1,1.7-2.1,2.4-5.9h0.5c-0.6-1.2-1.1-1.8-1.5-1.8H196c-1.5,8.4-2.6,12.6-3.2,12.7
		l0.6,0.8c-0.8,1.6-1.2,2.6-1.2,3l-0.9,0.1c-0.1-0.6-0.3-0.9-0.6-0.9v-0.2c0-0.8,0.4-1.2,1.3-1.3v-0.9l-0.9,0.1
		c1.6-5.8,2.4-9.1,2.4-10.1v-0.1l1.1,0.4l-0.1-0.9H194c-0.4,0-0.6-0.1-0.6-0.4l0.7-2l-0.1-1.4c1-1.7,1.5-3,1.5-4.1v-0.2l-0.6-1.9
		c0.6-1.4,1.2-3.5,1.8-6.3h0.5l-0.6-0.9c0.9-0.9,1.6-2.8,1.9-5.4c2-7.6,3.5-11.5,4.7-11.7v-0.9C203.2,32.3,203.9,30.8,205.1,29.6z
		 M187.3,108.2l0.9-0.1v0.5l-0.2,2.4L187,111L187.3,108.2z M188.7,97.5l0.9-0.1l-1.1,9.7h-0.9L188.7,97.5z M189,95.6l0.9-0.1
		l0.1,0.9l-0.9,0.1L189,95.6z M191.2,86.9l0.1,1.9h-0.7c-0.5,0-0.8-0.3-0.8-0.8L191.2,86.9z M190,89.8h0.5v0.9H190V89.8z
		 M192.1,87.7l1.4-0.1v0.2c0,0.5-0.3,0.8-0.8,0.8h-0.5L192.1,87.7z M192.1,120v0.5h0.9V120H192.1z M192.2,110.5l0.1,0.9
		c0.6-0.1,0.8-0.4,0.8-0.8v-0.2L192.2,110.5z M193.4,134.7l0.9-0.1v0.9l-0.9,0.1V134.7z M194.6,127l0.1,1.4h-0.9v-0.5
		C193.8,127.3,194.1,127,194.6,127z M195.4,93.1l0.1,1.4v0.2c0,0.5-0.3,0.8-0.8,0.8l-0.1-1.4C194.7,93.6,195,93.2,195.4,93.1z
		 M195.3,134.5l0.9-0.1v0.9l-0.9,0.1V134.5z M195.7,101.2l-0.2,2.4c0.6,0,0.8-0.2,0.8-0.7v-0.2l-0.1-1.4H195.7z M196.4,65.6l0.1,0.9
		l0.5-0.1l-0.1-0.9L196.4,65.6z M196.4,97.9l0.1,1.4l0.9-0.1c-0.4-0.6-0.6-1.1-0.6-1.4L196.4,97.9z M196.9,81.6l0.9-0.1l-0.2,2.4
		l-0.5,0.1L196.9,81.6z M197.8,60.1v0.2c0,0.6-0.2,1.5-0.7,2.7l0.1,0.5h0.5l0.7-3l-0.1-0.5H197.8z M198.4,72.4v0.2
		c0,0.4-0.1,0.8-0.4,1.3l0.9-0.1l-0.1-1.4H198.4z M198.2,58.7l0.1,0.9h0.5l-0.1-0.9H198.2z M199,83.8l-0.2,3c0.5-0.1,0.9-1.1,1.2-3
		H199z M199.1,91.4l0.1,0.9h0.5l-0.1-0.9H199.1z M199.2,54.8l0.1,0.5l0.9-0.1l-0.1-0.5L199.2,54.8z M200.9,62.2v0.2
		c0,0.8-0.5,2.5-1.4,5.1h0.9l0.9-4.9v-0.5H200.9z M199.5,89.9l0.1,0.9h0.5l-0.1-0.9H199.5z M199.8,88v0.5l0.9-0.1v-0.5L199.8,88z
		 M199.9,51.8l0.1,0.5h0.9l-0.1-0.5H199.9z M199.9,73.7l0.1,0.9h0.5l-0.1-0.9H199.9z M204.3,35.9l-3.9,15.5c1.5-3.3,3-8.4,4.4-15.1
		v-0.5L204.3,35.9z M200.9,61.8l0.8-0.1v-0.8c-0.6,0.1-0.8,0.4-0.8,0.8V61.8z M202.2,121.1c0,0.3-0.1,0.8-0.4,1.4h0.9l-0.1-1.4
		H202.2z M202.3,133.4h0.5l0.2,2.8l-0.9,0.1v-0.5L202.3,133.4z M203,54.4v0.2c0,0.5-0.2,1.1-0.7,1.8h0.5c0.6-0.1,0.8-0.5,0.8-1.3
		v-0.2l-0.1-0.5H203z M202.5,59.8v0.5h0.2c0.5,0,0.7,0.3,0.8,0.8h0.5l-0.1-0.9l-0.9-0.5L202.5,59.8z M203.2,52.1l0.2,1.9h0.5
		l-0.2-1.9H203.2z M203.7,67.2c0,0.3-0.1,0.8-0.4,1.5l1.4-0.1l-0.1-0.5C204.7,67.5,204.3,67.2,203.7,67.2z M204.1,71.5l0.9-0.1v0.7
		c0,0.5-0.3,0.8-0.8,0.8h-0.5C204,72.3,204.1,71.8,204.1,71.5z M204.5,93.7l0.6,0.9c-0.6,0.2-0.9,0.5-0.9,1.1
		c0.2,0.6,0.5,0.8,0.9,0.8h0.1l0.2-2.4v-0.5H204.5z M206.8,86.5l-2,4.4l0.1,0.9h0.5l0.7-3l0.9,0.5l0.4-1.1l-0.1-1.9L206.8,86.5z
		 M204.9,54.3l0.1,0.5l0.8-0.1v-0.5L204.9,54.3z M205.8,42.8v0.9h0.5v-0.9H205.8z M207.6,75l0.1,0.9l0.5-0.1l-0.1-0.9L207.6,75z
		 M207.6,113l0.1,0.5l1.4-0.1l-0.1-0.5L207.6,113z M209,58.2l0.1,0.5c0,0.6-0.3,1-0.9,1.1l-0.5-0.9C208.1,58.8,208.5,58.6,209,58.2z
		 M207.7,70.6h0.9v0.2c0,0.5-0.3,0.7-0.8,0.7L207.7,70.6z M208.1,53.1l1.4-0.2l-0.7,2l0.1,1.4l-0.9,0.6v-0.5L208.1,53.1z
		 M211.4,63.2h0.5c0.6,0.1,1,0.4,1.1,0.8c-0.6,0.1-0.8,0.6-0.8,1.7V66h0.5l0.1,0.9h-0.5l-1.1-0.4v0.5c0,1-0.5,1.9-1.5,2.5h-0.5
		l-1.1-0.4c0.2-2.5,0.7-3.8,1.5-3.9l0.1,1.4l0.9-0.1l-0.1-2.4C210.6,63.6,210.9,63.3,211.4,63.2z M208.1,95.8v0.5
		c0.3,0,0.8,0.1,1.4,0.4l0.9-0.1v-0.5H210c-0.6,0-1-0.1-1.4-0.2H208.1z M208.6,80.1l0.9-0.1l0.1,0.9l-0.9,0.1L208.6,80.1z M208.8,82
		c0.6,0.1,0.9,0.4,0.9,0.8l-0.9,0.1V82z M209.3,71h0.9c0,0.6-0.3,0.9-0.9,0.9V71z M209.3,76.7h0.9v0.9h-0.9V76.7z M209.4,51.6
		l0.9-0.1l0.1,0.9l-0.9,0.1L209.4,51.6z M211.4,57.5h0.5v0.9l1.4-1.1h0.5c-0.5,1.1-0.7,2.1-0.7,3v0.4h0.5c-0.2,1-0.8,1.7-1.7,2
		l-0.6-0.8l0.8-1.5l-0.1-0.9l-0.9,0.1l-0.9,5.2l-0.5,0.1l-0.2-2.4C210.1,59.3,210.8,57.7,211.4,57.5z M209.6,108v0.5l1.4-0.1v-0.1
		c0-0.6,0.4-0.9,1.3-0.9v-0.9C211.3,107.4,210.4,108,209.6,108z M209.9,45.3v0.9h0.5v-0.9H209.9z M210.2,43.9v0.9l0.5-0.1v-0.9
		L210.2,43.9z M210.8,94.7l-0.4,0.9h0.5c0.6-0.4,1-0.6,1.3-0.6v-0.5L210.8,94.7z M211.3,111.7l-0.2,1.9h0.9l-0.2-1.9H211.3z
		 M211.2,55.6h0.9l0.1,0.9h-0.9L211.2,55.6z M212,37V38c0.6-0.1,0.9-0.4,0.9-0.9H212z M212.6,109.2v0.5l0.9-0.1v-0.5L212.6,109.2z
		 M212.7,105.4l0.1,0.9l0.5-0.1l-0.1-0.8H212.7z M214,55.4l0.6,0.9l-1.4,0.1C213.3,55.8,213.5,55.5,214,55.4z M214.7,52.1l0.1,1.9
		v0.2c0,0.5-0.3,0.7-0.8,0.7l-0.6-0.8C213.8,52.7,214.2,52.1,214.7,52.1z M213.5,87.8l0.9-0.1v0.5l-0.9,0.1V87.8z M213.7,105.8
		c0.7-0.7,1.3-1.1,1.8-1.1v-0.9c-1.2,0.6-1.8,1-1.8,1.4V105.8z M214.8,113.8l0.5-0.1l0.1,0.9l-1.4,0.1
		C214,114.2,214.3,113.8,214.8,113.8z M214.2,112.4l0.9-0.1v0.5l-0.9,0.1V112.4z M230.8,111l0.8-0.1c0.1,0.6,1.5,1.6,4.1,3
		c0.3,0.6,0.5,1.2,0.6,1.9h-0.1c-0.6,0-0.9-0.6-0.9-1.8h-0.5l0.1,0.9c2.1,2,3.1,3.5,3.2,4.5c0,0.3-0.2,0.5-0.5,0.5l1.2,1.8
		c-0.2,0.5-0.4,1-0.4,1.5v0.5l0.9-0.6c0,0.2,0.1,0.4,0.4,0.4h0.1c0-0.3,0.2-0.5,0.5-0.5l0.2,2.8l-1.1-0.4l0.1,0.9l0.5-0.1l0.9-0.5
		c0.3,0.5,0.5,1.1,0.6,1.8l0.9-0.5c0.6,0.6,1,1.6,1.2,3.2h-0.5l0.1,1.4l0.9-0.6l2.6,3.7l0.1,0.9l-0.4,0.9h0.1c1.4,0,3.4,3.2,5.9,9.5
		c-0.6,0.2-0.8,0.4-0.8,0.8v0.1h0.2c2,0,3.6,1.9,5,5.8c1.5,1.2,4.5,5.2,9.1,12c7.5,7.8,13.6,11.7,18.3,11.7h0.7l0.9-0.1
		c5.1-4.7,9-7.2,11.7-7.7c0,0.3,0.2,0.5,0.5,0.5c0-0.6,1.1-1.2,3.2-1.7c0.1,0.2,0.2,0.4,0.5,0.4h0.1c0,0.3-0.2,0.5-0.5,0.6l0.7,2.2
		v0.1c0,1.2-1.1,3.3-3.3,6.4v0.1c0,2-4.2,4.5-12.5,7.6c-0.1-0.2-0.2-0.4-0.5-0.4h-0.1v0.1c0,0.2-0.1,0.4-0.4,0.4l0.5,0.9l-0.4,0.9
		l-0.9-0.4h-0.9l-3.7,2.2l-0.9-0.4v0.2c0,0.5-0.3,0.7-0.8,0.7c-0.1-0.6-0.4-0.8-0.8-0.8h-0.2v0.2c0,0.5-0.3,0.7-0.8,0.8
		c-0.7-0.7-1.1-1.3-1.2-1.9l-1.3,1.1c0-0.2-0.1-0.4-0.4-0.4h-0.1v0.1c0,0.9-1.1,1.4-3.2,1.5c-0.1-0.6-0.4-0.8-0.8-0.8h-0.2l-2.2,0.7
		c-4.5-2.1-6.8-3.3-7-3.7c-0.6,0.3-1.1,0.5-1.4,0.6c-3.5-1.3-7.6-4.1-12.1-8.5c-1.2-1-2.6-3-4.4-5.8c-0.4,0-1.5-1.2-3.2-3.5
		c-0.4,0-1.3-1-2.6-3.1c0.6,0,0.8-0.2,0.8-0.7v-0.2c-0.6-1.2-1-1.8-1.4-1.8h-0.1c0,0.3-0.2,0.5-0.5,0.5v-0.9l0.4-0.9
		c-1.3-0.4-1.9-0.8-2-1.3l0.4-0.9h-0.2c-0.8,0-1.2-0.3-1.2-0.8l0.4-0.9v-0.5h-0.5v0.9c-1.7-1.2-2.6-2.8-2.7-5h0.5l-0.1-0.9l-0.9,0.5
		c-2.9-4.7-4.4-7.2-4.5-7.7c0.2-0.5,0.4-0.9,0.4-1.2v-0.2c-1.2-0.6-3-3.8-5.6-9.5l0.5-1.1c-1.2-2-3-6.1-5.4-12.3v-0.7
		c0-1.7,0.6-2.6,1.7-2.7c1.2-1.1,2.4-1.7,3.7-1.8l-0.1-1.4h0.5l0.9,0.4v-0.1c0-0.9,0.7-1.4,2.2-1.5v0.5c1.2-0.2,1.8-0.7,1.8-1.4
		v-0.1l1.5,0.8l0.8-0.6l1.1,0.4c0.5-0.3,1.1-0.5,1.8-0.6c0.1,0.3,0.3,0.5,0.6,0.5L230.8,111z M216.5,45.7l0.1,0.9
		c-0.9,3.5-1.6,5.4-1.9,5.4l-0.1-0.5v-0.7C214.6,48.7,215.2,46.9,216.5,45.7z M215.8,102.8l0.1,0.8h0.5l-0.1-0.9L215.8,102.8z
		 M223.8,96.8l0.1,0.9c0.6,0,0.8-0.2,0.8-0.7v-0.2H223.8z M224.8,102l1.4-0.1l-0.1-0.9h-0.5c-0.6,0.2-0.8,0.5-0.8,0.9V102z
		 M227.3,97.5V98l0.9-0.1v-0.5L227.3,97.5z M227.9,93.6v0.5h0.5c1.2-0.6,1.8-1.1,1.8-1.5h-0.5C228.9,93.2,228.3,93.6,227.9,93.6z
		 M229.5,96.3h0.5c3.2-1.9,4.9-3.2,4.9-3.8v-0.5C231.5,94.2,229.7,95.6,229.5,96.3z M229.6,97.7v0.5l1.4-0.1l0.4-0.9h-0.5
		C230.4,97.5,229.9,97.7,229.6,97.7z M232.8,96.1l0.9-0.1l-0.1-0.9c-0.6,0.2-0.8,0.5-0.8,0.9V96.1z M234.5,87.8v0.5h0.9v-0.5H234.5z
		 M235.2,91.6l0.1,0.9h0.5l-0.1-0.9H235.2z M238.5,166.8v0.5c0.4,0.6,0.6,1,0.6,1.4l0.5-0.1l-0.1-1.9L238.5,166.8z M238.9,89.3h0.5
		l0.1,0.9H239L238.9,89.3z M240.2,126.7l0.1,1.4h0.9c-0.3-0.6-0.5-1.1-0.6-1.4H240.2z M241.2,143.8l0.1,1.4l0.9-0.1
		c-0.4-0.6-0.6-1-0.6-1.3H241.2z M241.5,86.7l1.4-0.1v0.2c0,0.5-0.3,0.8-0.8,0.8h-0.5L241.5,86.7z M242.3,145.5l0.1,1.4
		c0.6,1.2,1.1,1.8,1.5,1.8h0.1l-0.1-0.5c-0.6-0.6-1-1.5-1.2-2.7H242.3z M242.6,165.5l0.1,0.9l0.5-0.1l-0.1-0.9L242.6,165.5z
		 M242.8,129l0.1,0.9l0.5-0.1l-0.1-0.9L242.8,129z M242.9,86.1l0.9-0.1v0.5l-0.9,0.1V86.1z M243.2,134.1l0.1,0.9
		c0.6,0,0.8-0.2,0.8-0.7v-0.2H243.2z M243.7,85.6h0.9l0.1,0.5h-0.9L243.7,85.6z M243.7,166.8l0.1,0.9h0.5l-0.1-0.9H243.7z
		 M244.3,136l0.1,0.9l0.9-0.1l-0.1-0.9L244.3,136z M245.7,151.9v0.5c0.4,0.6,0.6,1,0.6,1.4l0.5-0.1v-0.5c-0.4-0.6-0.6-1-0.6-1.3
		H245.7z M246.1,139.5l0.1,0.9c0.3,0.6,0.5,1.1,0.6,1.4h0.5l-0.1-0.9c-0.4-0.6-0.6-1.1-0.6-1.4H246.1z M247.3,142.4v0.5l0.9-0.1
		v-0.5L247.3,142.4z M248.4,74.3l0.1,0.5l0.9-0.1l-0.1-0.5L248.4,74.3z M248.8,144.1l0.1,0.9l0.5-0.1l-0.1-0.9L248.8,144.1z
		 M248.9,145.5c0.4,0.5,0.6,1.1,0.7,1.8h0.5l-0.2-1.9L248.9,145.5z M250.8,144.8l0.1,0.9h0.5l-0.1-0.9H250.8z M252.2,150.4l0.1,1.4
		h0.5l-0.1-1.4H252.2z M253.3,151.8l0.1,0.9l0.5-0.1l-0.1-0.9L253.3,151.8z M254.5,154.1l-0.4,0.9l1.4-0.1c-0.1-0.6-0.4-0.8-0.8-0.8
		H254.5z M255.8,169.1c0.6,0,0.8-0.2,0.8-0.7v-0.7c-0.6,0.2-0.8,0.4-0.8,0.8V169.1z M257.2,158.1l0.1,0.9l0.9-0.1
		c-0.1-0.6-0.4-0.8-0.8-0.8H257.2z M257.8,160l0.1,0.4h0.9l-0.1-0.5L257.8,160z M281.8,184.5l0.1,0.9l0.9-0.1
		c-0.1-0.6-0.4-0.8-0.8-0.8H281.8z M286.9,183.5l0.1,0.5l0.9-0.1l-0.1-0.5L286.9,183.5z"/>
	<path id="XMLID_269_" class="st0" d="M296.1,63.5c-0.7,1.3-1.5,1.9-2.4,1.9l-0.1,0.9c1.7-1.2,3-1.8,3.8-1.8h0.1
		c-0.1,0.9-0.5,1.3-1.3,1.3H296v0.5l1.9,0.1c0.1-0.9,0.9-1.5,2.5-1.8l2.4,0.5l1.9,0.1l-0.1,0.9l-0.5,0.9c0.3,0,0.5,0.2,0.5,0.5
		l0.9-0.5h0.5c0.6,0.2,0.9,0.5,0.9,1.1h-0.1c-0.2,0-0.4,0.1-0.4,0.4c1.5,0.1,2.2,0.8,2.2,2.2v0.2l0.9-0.5v0.9h-0.9l-0.1,0.9l1.4,0.1
		v0.9l-0.9-0.1v0.9l0.9,0.1V75c-6.4,5.8-10.6,10.1-12.8,12.8c-2.1,2.7-3.6,4-4.7,4h-0.1v-0.9c1.2-0.6,3-2.7,5.4-6.4V84h-0.5
		c-2.3,3.2-3.5,4.9-3.6,5.1h-0.9l2.6-3.8c-0.5,0-1.5,1.1-3,3.2c-2,2.1-3,3.7-3.1,4.7l-0.5-0.1l-1.8-1.4l-1.5,2.7v0.5l0.5,0.1
		c0-0.9,0.3-1.4,0.9-1.4l0.9,0.5l-1.1,1.9c0.3,0.6,0.5,1.1,0.5,1.4h-0.5l-0.9-0.6c0,0.6-0.2,0.9-0.5,0.9l0.5,0.9l-0.1,0.5
		c-3.2,1.1-4.8,4.2-5,9.3c-1.4,7.5-2.2,11.2-2.4,11.2l0.5,1.1c-0.1,1.7-1,5.1-2.7,10.3h-0.5l-0.9-0.6c-0.1,1.6-0.8,2.4-2,2.4v-0.5
		c-1.4-1.3-2.1-2.5-2.1-3.7v-0.2h-0.5l-0.1,0.5c0.3,0.6,0.5,1.1,0.5,1.4h-1.4c-0.4-0.1-1-1.4-1.8-3.9l0.5-0.9l0.1-0.5
		c-0.9,0-1.4-0.3-1.4-0.9h0.5l0.9,0.5v-1.4c-1.3,0-2.2,1.7-2.5,5.2l-0.9-0.1c0-0.4-0.3-2.1-0.8-5.2h-0.5v0.9h-0.5
		c-1.7-0.1-2.8-6.4-3.1-19.1c0.3-0.6,0.5-1.1,0.5-1.4c-0.6,0-0.9-0.3-0.9-0.9c0.6,0,1-0.3,1.1-0.9v-0.5c0-0.3-0.2-0.5-0.5-0.5
		l0.5-0.9v-1.1c0-0.2-0.1-0.4-0.4-0.4c0.6-1.6,1-2.8,1.1-3.8h-0.5c0.6-1.4,1-2.8,1.1-4.3l-0.5-0.9c1-2.2,2.4-6.1,4.3-11.7
		c1.5-2.4,2.6-4,3.4-4.6c0.6,0.8,0.9,1.5,0.9,2h0.5c0.2-1.3,0.6-1.9,1.4-1.9l1.4,0.1l-0.1,3.3h0.5c0.2-1.6,0.7-2.4,1.5-2.4
		c0,0.3,0.7,1.1,2.2,2.5c0.6-0.3,1.1-0.5,1.4-0.5c0.1,0.6,0.4,0.9,0.9,0.9l2.4-0.4v0.9c0,0.3-0.2,0.5-0.5,0.5
		c0.2,0.6,0.4,1.2,0.4,1.9h0.5c0.1-0.9,0.4-1.3,0.9-1.3h0.5v0.5c-0.3,0.6-0.5,1-0.5,1.4c0.6,0.3,1.1,0.5,1.4,0.5l-0.1,1.4l-0.5,0.9
		h0.5c0.6,0,1-0.8,1.1-2.4c0.3,0,0.5,0.2,0.5,0.5c0.6-0.2,1.1-0.4,1.4-0.4v-0.5h-0.9c0,0.2-0.1,0.4-0.4,0.4h-0.1
		c0-0.3-0.2-0.5-0.5-0.5c0,0.3-0.2,0.5-0.5,0.5v-0.5c0.2-1.5,3-5,8.4-10.5v-0.5h-0.1c-1.4,0-2.8,1.3-4.3,4l-2.5,1.9l-0.5-0.1
		l0.1-0.5c2.9-2.9,4.4-4.6,4.4-5h-0.5c-0.6,0.1-0.9,0.4-0.9,0.8c-0.6-0.3-1.1-0.5-1.4-0.5v-0.5c0.2-0.6,0.5-0.9,0.9-0.9l-0.4-0.9
		v-0.5h0.5l0.9,0.5c0.9-1.5,1.5-2.2,1.9-2.2c0.6,0,0.9,0.5,0.9,1.4h0.5v-0.9c-0.6,0-0.8-0.2-0.8-0.7v-0.2
		C293.7,64.1,294.9,63.5,296.1,63.5z M262.4,119.8v0.9h0.5v-0.9H262.4z M268.3,74.4l-0.1,0.9h0.5l0.1-0.9H268.3z M268.6,119.4v0.9
		l0.5,0.1v-0.9L268.6,119.4z M268.6,121.8c0.2,0.6,0.4,1.1,0.4,1.5h0.5l0.6-2.4C269,121.2,268.6,121.4,268.6,121.8z M268.9,124.2
		v0.9c0.6,0,0.9-0.3,0.9-0.9H268.9z M270.2,127.6v0.5h1.4v-0.5H270.2z M283.5,73.6h1.4c-0.9,2-1.7,3-2.5,3.2h-0.5v-0.5
		C283,75.3,283.5,74.4,283.5,73.6z M282.5,99.5v0.5l0.5,0.1l0.6-1.9C283,98.2,282.6,98.6,282.5,99.5z M287.4,71.4l-0.1,0.9
		c-0.5,0-1.3,0.4-2.4,1.3v-0.5C285,72.5,285.9,71.9,287.4,71.4z M285.2,76h0.9v0.5c0,0.6-0.3,0.9-0.9,0.9V76z M286.3,99.3h0.9
		c0,1.7-0.5,2.6-1.4,2.7h-0.5v-0.5C286,100.6,286.3,99.8,286.3,99.3z M285.8,85.9v0.9l0.5,0.1V86L285.8,85.9z M288.8,82.2
		c-0.5,1.3-0.9,1.9-1.4,1.9l-0.9-0.5v0.9h0.9c1.1-1.2,1.9-1.8,2.2-1.8h0.1v-0.5L288.8,82.2z M286.5,79.9h1.9c0.1-0.9,0.7-2,2-3.2
		v-0.5C287.8,78.2,286.5,79.4,286.5,79.9z M286.9,69h0.9v0.5h-0.9V69z M291.3,94.7c-1.5,2.4-2.6,3.8-3.4,4.1h-0.5v-0.9
		c0.4,0,1.4-1.1,3-3.2H291.3z M287.6,90.8v0.5h0.9v-0.5H287.6z M289.6,88.5V89c0.6,0,0.9-0.3,0.9-0.9v-0.5
		C289.9,87.6,289.6,88,289.6,88.5z M291.3,67.7h0.9v-0.9C291.6,66.8,291.3,67.1,291.3,67.7z M291.3,92.8h0.9v0.9h-0.9V92.8z
		 M291.4,90.4h0.9v0.5h-0.9V90.4z M292.1,84.7l-0.1,0.9h0.5l0.1-0.9H292.1z M293.6,68.7h0.5c0.6-0.3,1.2-0.5,1.9-0.5l-0.5-0.9
		C294.3,67.8,293.6,68.3,293.6,68.7z M295.8,62.1l1.9,0.1l-0.1,0.5c0,0.6-0.2,0.8-0.7,0.8h-0.2c-0.6,0-0.9-0.3-0.9-0.9L295.8,62.1z
		 M298.3,83.5V84c0.6,0,0.9-0.3,0.9-0.9v-0.5C298.6,82.7,298.3,83,298.3,83.5z M300.4,63.3h2.4v0.9h-2.4V63.3z M301.2,79.9
		c0,0.3-0.2,0.8-0.5,1.4h0.5l0.5-0.9v-0.5H301.2z M306.7,74.9v0.5h1.4l0.5-0.9h-0.5C307.5,74.7,307,74.9,306.7,74.9z M307.6,73V74
		h0.5V73H307.6z"/>
	<path id="XMLID_300_" class="st0" d="M306.5,99.4h0.9v0.9h-0.9V99.4z M307,98h0.9v0.5H307V98z M351,57.3v0.5l0.9-0.5h1.4
		c0.3,0,1.6,1.4,3.8,4.3c0.3,0,0.5,0.3,0.5,0.9h0.9l0.9-0.5c1,1.5,2.9,2.8,5.7,3.8c0,0.7,1.1,2,3.3,3.8v0.9h-0.5
		c0.3,0.5,0.5,1.4,0.5,2.8h0.5v-0.9h0.9v1.4c-0.9,0-1.4,0.2-1.4,0.5c0.3,0.6,0.5,1.1,0.5,1.4c-0.6,0-0.9,0.5-0.9,1.4l-0.9-0.5h-0.5
		c0,0.6-0.3,0.9-0.9,0.9v0.9l0.9-0.5l0.9,1.4V80c-0.6,0.6-0.9,2.1-0.9,4.7l-0.9-0.5h-0.5v0.9h0.9v0.5c-0.9,1-1.4,1.8-1.4,2.4
		c0.6,1,0.9,1.8,0.9,2.4l-0.9,0.5c-0.3,0-0.5-0.2-0.5-0.5c-1.3,0.3-2.3,1.1-2.8,2.4l0.5,0.9l-0.9,0.5l-0.9-0.5h-0.5v0.5h0.9
		c-0.1,0.4-2.1,2.1-6.2,5.2l0.5,0.9c-0.6,0-2.5,1.4-5.7,4.3h-1.9v0.5c0,0.3,0.2,0.5,0.5,0.5c0,0.8-1.4,1.9-4.3,3.3l-0.5,0.9
		l-0.9-0.5h-0.5c0,0.9-0.3,1.4-0.9,1.4h-0.5c-0.3,0-0.5-0.2-0.5-0.5l-0.9,0.5c-0.3,0-0.5-0.2-0.5-0.5c-2.4,0.9-4.1,1.4-5.2,1.4
		c-1.9-0.6-3.3-1.3-4.3-1.9c0,0.6-0.5,0.9-1.4,0.9c0,0.3,0.2,0.8,0.5,1.4l-0.5,2.4c0.9,2.9,1.4,4.7,1.4,5.2h2.4
		c1.7,0,6-1.3,12.8-3.8l-1.9,1.9h0.5c0.2,0,0.8-0.2,1.9-0.5c0.6,0.3,1.1,0.5,1.4,0.5c0.1-0.6,0.4-0.9,0.9-0.9h0.9v0.9
		c4.5-1.9,7-2.8,7.6-2.8c-0.9,1.6-2.1,2.4-3.3,2.4c0.3,0.6,0.5,1.1,0.5,1.4h0.5c0-1.3,0.9-1.9,2.8-1.9l2.4,1.4
		c2.1,0,6.9-2.2,14.2-6.6h0.9v1.4l-3.8,1.9v0.9h0.9l1.9-1.4c0,0.6,0.5,0.9,1.4,0.9v1.4h-0.5c-0.3,0-0.5-0.2-0.5-0.5
		c-0.6,0.3-1.1,0.5-1.4,0.5v3.3h-0.9v-0.9H370l-0.9,0.5l-0.5-0.9c0-0.9,0.5-1.4,1.4-1.4v-0.5h-0.5l-1.9,0.9v-0.9h-0.5l-1.4,0.9
		l0.5,0.9c0,0.6-1.3,1.3-3.8,2.4v0.5h1.4l1.4-0.9h0.5v0.5c-0.3,0.6-0.5,1.1-0.5,1.4l-0.9-0.5c-1.6,0.8-2.4,1.4-2.4,1.9v0.5h0.5
		c0.6-0.3,1.1-0.5,1.4-0.5v0.9h-1.4v0.5h2.4c0,0.5-1.7,1.7-5.2,3.8c0,0.6-0.3,0.9-0.9,0.9h-0.5l-0.9-0.5c0,2.2-1.4,3.3-4.3,3.3
		c0-0.3-0.2-0.5-0.5-0.5v0.5l-0.9-0.5l-1.4,0.9c0-0.3-0.2-0.5-0.5-0.5c0,0.9-1.3,1.5-3.8,1.9V134h-0.9c-1.3,0-2.6,0.3-3.8,0.9
		c0-0.6-0.3-0.9-0.9-0.9v0.9h-0.9V134h-0.5v0.9c0.3,0,0.5,0.2,0.5,0.5l-0.9,0.5c-1.6-0.5-2.4-1.1-2.4-1.9l-2.4,0.5h-0.5
		c0-0.3-0.2-0.8-0.5-1.4l-0.9,0.5c-4.4-3-6.6-4.9-6.6-5.7l-0.9,0.5c-1.7-2.3-4.2-4-7.6-5.2v-0.5c1.3,0,1.9-0.5,1.9-1.4
		c-2.2-1.3-3.8-1.9-4.7-1.9v-1.9l0.5-0.9h-0.5c-0.6,0.3-1.1,0.5-1.4,0.5c-0.3-1.2-1.1-2.1-2.4-2.8l0.5-2.4v-3.3h0.9l0.9,2.8h0.5
		v-0.5c-0.3-2.1-0.5-3.9-0.5-5.2h0.5c-0.9-2.8-1.4-4.3-1.4-4.7l-0.9,0.5h-0.9v-2.4c0-0.3,0.2-0.5,0.5-0.5c0-0.9-0.6-1.4-1.9-1.4
		l0.9-1.4c-0.7,0-1.2-0.8-1.4-2.4h0.5c0.6,0,0.9,0.5,0.9,1.4c0.6,0,0.9-0.3,0.9-0.9h-0.9l0.5-0.9l2.4,1.4h1.4l1.4-0.9l-0.5-0.9
		c0.3-0.6,0.5-1.1,0.5-1.4h0.9v3.8h0.5c1.9-5.9,3.6-9.4,5.2-10.4h0.9c-2.2,2.9-3.9,6.4-5.2,10.4c0.3,0,0.5,0.2,0.5,0.5
		c1,0,1.8-1.4,2.4-4.3h0.5v1.4c-0.3,0.9-0.5,1.9-0.5,2.8c1-0.4,2-1,2.8-1.9c-0.3-0.6-0.5-1.1-0.5-1.4c0.3,0,1.6-1.4,3.8-4.3H325
		v-0.9l0.9,0.5c3.8-7,6.5-10.8,8-11.4l-0.5-0.9v-0.5c0.4,0,1.5-1.3,3.3-3.8l4.7-2.8c0.2-1.3,0.6-1.9,0.9-1.9l-0.5-0.9v-0.5l2.4-0.5
		V63h-0.9c-0.2,0.1-1.3,1-3.3,2.8c-1.3-0.3-1.9-1.1-1.9-2.4h0.9v0.9c0.7-0.9,2-1.8,3.8-2.8c0-0.9,0.9-2.1,2.8-3.8
		c0.6,0.3,1.1,0.5,1.4,0.5c0.6-0.3,1.1-0.5,1.4-0.5v0.5C349.7,57.6,350.5,57.3,351,57.3z M309.4,103.2h0.9v1.9h-0.9V103.2z
		 M311.3,112.2v0.9h0.5c0.6-0.3,1.1-0.5,1.4-0.5v-0.5H311.3z M313.2,105.1v2.4h0.5v-2.4H313.2z M313.6,107.9v2.4h0.5v-2.4H313.6z
		 M314.6,119.8c0.6,0.1,0.9,0.4,0.9,0.9v0.5h-0.9V119.8z M317,86.6h0.9v0.9H317V86.6z M318.4,84.7h0.5v0.9h-0.5V84.7z M318.9,82.8
		h0.9v0.5c0,0.6-0.3,0.9-0.9,0.9V82.8z M318.9,123.1v0.5h0.9v-0.5H318.9z M324.5,75.3v0.5c0,0.5-0.5,0.9-1.4,1.4v-0.5
		C323.1,76.2,323.6,75.7,324.5,75.3z M326,77.6c0.6,0.1,0.9,0.4,0.9,0.9l-2.8,2.4v-0.5C324.7,78.6,325.3,77.6,326,77.6z M324.1,83.3
		h0.9v0.9h-0.9V83.3z M326,81.9h0.9v0.5H326V81.9z M326.4,75.3h1.9v0.9c0,0.6-0.3,0.9-0.9,0.9h-0.9V75.3z M326.9,80
		c0.6,0.1,0.9,0.4,0.9,0.9c0,0.6-0.3,0.9-0.9,0.9c0-0.3-0.2-0.5-0.5-0.5C326.7,80.8,326.9,80.3,326.9,80z M329.7,78.1h0.5
		c0,0.6-0.9,1.3-2.8,1.9v-1.4h0.5l0.9,0.5C328.9,78.4,329.2,78.1,329.7,78.1z M329.3,75.7l1.9,0.5c0.6-0.3,1.1-0.5,1.4-0.5
		c0,0.5-0.5,0.9-1.4,1.4c-0.6-0.3-1.2-0.5-1.9-0.5V75.7z M330.7,71.5v0.9h-0.9C329.8,71.8,330.1,71.5,330.7,71.5z M337.3,64.8h0.5
		c1.6,0.8,2.4,1.4,2.4,1.9c-1.1,0-2.7,0.8-4.7,2.4l-0.9-0.5c-0.3,0.6-0.5,1.2-0.5,1.9l-1.4-0.9c0-0.6,1.6-2,4.7-4.3V64.8z
		 M352.9,70.5h-1.4c0,0.9-1.6,1.5-4.7,1.9v0.9l0.9-0.5h0.5c0,0.2-0.8,1-2.4,2.4h0.9v0.5c-1.6,0-2.4,0.5-2.4,1.4H343l-0.9-0.5
		l-0.5,0.9l0.9,0.5c0-0.3,0.2-0.5,0.5-0.5v0.5c-0.4,0-2.3,2.1-5.7,6.2c-0.8,0.9-1.6,1.4-2.4,1.4c0-0.3-0.2-0.5-0.5-0.5v0.5l0.9,1.4
		l-1.9,1.4l0.5,0.9v0.5c-0.9,0-1.4,0.5-1.4,1.4l0.9,0.5c0-0.6,1.4-1,4.3-1.4c3.2-4.1,5.8-6.2,7.6-6.2v0.5c0,0.6-0.5,0.9-1.4,0.9v0.9
		c4.3-3.8,6.7-5.7,7.1-5.7v1.4h0.5v-0.9c-0.3-0.6-0.5-1.1-0.5-1.4c0.8-0.6,1.4-0.9,1.9-0.9l-0.5-0.9c0.6-0.9,1.1-2.1,1.4-3.3v-0.5
		h-0.5v0.9h-0.5v-1.4c0-1.1,1.3-2.1,3.8-2.8v-0.5h-1.9v-0.9h-0.5L352.9,70.5z M332.6,81.4c0.5,0,1.1-0.8,1.9-2.4v-0.5
		C333.2,78.9,332.6,79.8,332.6,81.4z M333.1,70.5h0.5v0.9h-0.5V70.5z M334,82.4h0.9v-0.9C334.3,81.5,334,81.8,334,82.4z M334.5,77.2
		v0.9h0.5c0.6,0,0.9-0.3,0.9-0.9v-0.5C335.3,77,334.8,77.2,334.5,77.2z M335.9,75.7v0.5h0.9v-0.5H335.9z M336.4,76.7v0.9h0.5v-0.9
		H336.4z M346.8,66.3l-0.9-0.5h-0.9c0,1-0.8,1.8-2.4,2.4v1.4l-0.9-0.5c-0.1,0.9-0.7,1.7-1.9,2.4c-1.1,1.9-2.1,2.8-2.8,2.8v0.9h2.8
		c0-1.6,1.1-2.8,3.3-3.8c0,1.3,0.5,1.9,1.4,1.9v0.5l-0.5,0.9h0.5c0-2.5,3.3-4.6,9.9-6.2v-1.4l-2.4,0.5c0-0.9-0.2-1.4-0.5-1.4h-1.4
		v-0.9C347.9,65.4,346.8,65.7,346.8,66.3z M341.6,88.5c0,0.7-0.8,1.2-2.4,1.4v0.5h0.5c1.4-0.6,2.2-1.3,2.4-1.9H341.6z M339.2,126.4
		v1.4h0.9v-1.4H339.2z M339.7,77.2v0.5h0.9v-0.5H339.7z M340.2,107c0.1,0.6,0.4,0.9,0.9,0.9l0.5-0.9H340.2z M340.6,73.8v0.5h0.9
		v-0.5H340.6z M340.6,78.1v0.5h0.9v-0.5H340.6z M342,73.8v0.9c0.6,0,0.9-0.3,0.9-0.9H342z M345.8,134.9c0,0.5-0.6,1.1-1.9,1.9H343
		v-1.4C343.2,135.4,344.2,135.2,345.8,134.9z M343.9,115.5h0.9v0.5h-0.9V115.5z M344.4,132.1v0.9h0.5v-0.9H344.4z M344.9,62.5v0.9
		h0.5v-0.9H344.9z M344.9,116.9h0.9v0.5h-0.9V116.9z M345.8,125v0.5h0.9V125H345.8z M349.1,84.7c0,0.5-0.3,1.1-0.9,1.9h0.5
		c0.5,0,0.9-0.5,1.4-1.4v-0.5H349.1z M349.1,116h0.5c-0.3,0.6-0.5,1.1-0.5,1.4h-0.9v-0.5C348.3,116.3,348.6,116,349.1,116z
		 M350.6,78.1v0.5c0,0.6-0.3,0.9-0.9,0.9h-0.5C349.1,79,349.6,78.6,350.6,78.1z M352.9,75.3v0.5c0,0.6-0.3,0.9-0.9,0.9v-0.5
		C352.1,75.6,352.4,75.3,352.9,75.3z M352.5,57.7v0.5h0.9v-0.5H352.5z M352.5,65.3v0.5h0.9v-0.5H352.5z M352.9,81.4v0.9h0.5v-0.9
		H352.9z M353.9,75.7v1.4h0.5v-1.4H353.9z M353.9,79c0.1,0.6,0.4,0.9,0.9,0.9V79H353.9z M355.3,76.2c0,0.9-0.2,1.4-0.5,1.4
		c0.3,0.6,0.5,1.1,0.5,1.4h0.5c0-0.9,0.5-1.8,1.4-2.8H355.3z M357.7,113.6c0,0.5-0.5,0.9-1.4,1.4h-0.9
		C355.3,114.3,356.1,113.8,357.7,113.6z M356.7,73.8l-0.5,1.9c0.6,0,0.9-0.5,0.9-1.4v-0.5H356.7z M365.7,109.3v0.5l-1.4,2.4
		c0.3,0,0.5,0.2,0.5,0.5c-1.7,0-3.9,1.3-6.6,3.8c-0.6-0.3-1.1-0.5-1.4-0.5V115c1.1,0,3.2-1.1,6.2-3.3h0.5v-0.5l-0.5-0.9
		c0.3,0,0.5-0.2,0.5-0.5l0.9,0.5L365.7,109.3z M357.7,69.1v0.5h0.9v-0.5H357.7z M358.6,97.5h0.5v0.9h-0.5V97.5z M359.1,73.8
		c0.3,0,0.8,0.2,1.4,0.5v-1.4H360C359.4,73,359.1,73.3,359.1,73.8z M360.5,86.6c0,0.9-0.5,1.4-1.4,1.4V89h0.5c0.5,0,1.1-0.8,1.9-2.4
		H360.5z M361.5,95.6h0.5v0.9c-0.5,0-1.1,0.3-1.9,0.9h-0.5v-0.9C360,96.6,360.7,96.2,361.5,95.6z M361.5,68.2v0.5l0.5,2.8l0.9-0.5
		h0.5v1.4h0.9c0-0.6-0.8-2.1-2.4-4.3H361.5z M361.9,74.3l0.5,0.9c-0.6,2.2-0.9,3.5-0.9,3.8c1.9-2.5,2.8-4.3,2.8-5.2v-0.5h-0.9
		L361.9,74.3z M361.5,120.2v0.9c0.6,0,0.9-0.3,0.9-0.9H361.5z M361.9,72.4v0.9h0.5v-0.9H361.9z M364.8,80.5c0,0.7-0.9,2.3-2.8,4.7
		v1.4h0.5c0-0.4,1.1-2,3.3-4.7c-0.3-0.6-0.5-1.1-0.5-1.4H364.8z M361.9,87.6v0.9h0.5v-0.9H361.9z M365.2,72.4
		c0.6,1.6,0.9,2.8,0.9,3.8c0.6,0,0.9-0.3,0.9-0.9v-0.5l-0.9-1.4v-0.5l0.5-0.9h-0.5L365.2,72.4z M365.2,76.2v0.9h0.5v-0.9H365.2z
		 M365.2,88h0.9v0.5h-0.9V88z M365.7,110.8h0.9v0.9h-0.9V110.8z M369.5,81.9h0.5c-1.2,2.2-2,3.3-2.4,3.3v-0.9
		C368.2,82.8,368.9,82,369.5,81.9z M369.5,75.7h0.9v1.4h-0.9V75.7z M375.2,114.1v0.5c0,0.6-0.3,0.9-0.9,0.9V115
		C374.3,114.4,374.6,114.1,375.2,114.1z"/>
	<path id="XMLID_375_" class="st0" d="M401.1,29.6h0.5c0.1,0.5,0.6,1.1,1.7,1.9c-0.2,0.6-0.4,1.1-0.4,1.5l0.5-0.1l1.7-2.2
		c0.1,0.3,0.2,0.5,0.5,0.5h0.1l-0.8,2.1c0.6,1.7,1.8,2.6,3.5,2.6h0.6v-0.1c0-0.2,0.1-0.4,0.4-0.5l-0.1,2.6v0.5l0.9-0.1v-0.9
		c0-1,0.2-1.6,0.7-1.7h0.5c0,0.3-0.2,0.5-0.5,0.6c0.5,1.3,0.7,2.4,0.8,3.4l0.5-0.1v-0.2c0-0.8,0.3-1.2,0.8-1.3l0.1,0.9
		c-0.4,0.6-0.6,1.7-0.6,3.2c0,0.6,0,1.2,0.1,2c-0.6,0-1-1-1.2-3l-0.5,0.1v0.1c0,0.9-0.7,3.4-2.1,7.2l0.5-0.1c0.6,0,1-1.2,1.1-3.7
		l0.9-0.1l0.7,2.5c-2.1,6.6-3.8,13.5-5,20.5l-0.5,0.1l0.6,0.9c-0.9,1.3-1.3,2.8-1.4,4.7l0.9-0.1c0,0.3-0.2,0.5-0.5,0.6l0.6,0.9
		l0.1,1.4l-0.9,0.1l-0.2-2.5l-0.5,0.1v0.1c0,0.9-0.9,6.9-2.8,18c-0.2,7.2-0.7,10.8-1.3,10.9c0.1,0.3,0.3,0.5,0.6,0.5v1.3
		c0,6.5-0.6,9.9-1.7,10.1l1.4-0.1l0.5,4.5c0,0.6-0.2,2.3-0.5,5.1l-0.9,0.1l-0.7-1.9l0.5-0.1l-0.6-0.9l-0.5-5.6l0.4-1.1l-0.9,0.1
		l1.1,10.2l-0.4,1.1c0.6,0,0.9,0.3,0.9,0.8l-1.7,2.2l0.1,1.1l1.3-1.2l0.6,0.9l-0.9,0.1l0.1,0.9l0.6,0.9l-0.5,0.1
		c-1.7-0.6-2.6-2-2.8-4.3l-0.9,0.1l0.6,0.9l0.1,1.4v0.2c0,0.6-0.3,0.9-0.8,0.9c-0.1-0.6-0.5-1.2-1.2-1.9v-0.6
		c0.4-0.6,0.6-1.4,0.6-2.2v-0.8l0.9-0.1l0.2,1.5l0.5-0.1l-0.4-2.5h-0.1c-0.9,0-1.5-0.9-2-2.8h-0.2c-0.5,0-0.8-0.3-0.8-0.8l-0.7-6.6
		h0.9l-0.1-1.5l-0.9,0.6h-0.5l-0.1-0.9h-0.5v0.4c0,0.5-0.1,0.7-0.4,0.7c0.1,0.3,0.2,0.5,0.5,0.5h0.1l-0.2,2.6l0.7,2.5
		c-0.1,0.6-0.1,1.3-0.1,2c0,0.6,0,1.3,0.1,2v0.5l-0.9,0.1c0-0.3-0.2-0.8-0.6-1.4l0.2-2.6c-0.6-1.8-0.9-3.1-0.9-3.9l0.2-2.1
		c-0.3-0.6-0.5-1.1-0.6-1.4c0.3-1.4,0.7-2.2,1.2-2.2l1.1,0.5l0.4-1.1l-0.2-1.5l-0.5,0.1v0.2c0,0.3-0.1,0.8-0.2,1.3
		c-1-0.2-1.5-0.5-1.5-0.8l-0.9,0.6l-0.9,0.1l0.2-7.7l-0.1-0.5h-0.5v0.4c0,0.9-0.2,3.6-0.5,7.9H387c-0.6,0-0.9-0.5-1.1-1.4
		c-0.2,0-0.4,0.1-0.4,0.4v0.2l-1.1-0.5l-0.5,0.1l0.1,0.5l0.6,0.9l-1.3,1.2c-0.2-1.3-0.5-1.9-1.1-1.9h-0.1l-0.1-1.1
		c0.7-1.3,1.1-2.2,1.1-3v-0.2l-0.9-0.4c0.2-10.5,0.8-19.2,2-26.3l-0.6-0.9c0.9-0.1,1.4-1.8,1.4-5.2l0.5-0.1l0.9,0.5l-0.1-1.1
		l-0.6-0.9l0.9-0.6l-0.6-0.9c0.9-0.1,1.9-5.1,3.2-15.1l4.7-17.9c0.8-3.6,2.4-5.4,4.7-5.7l0.1,0.9h0.5L401.1,29.6z M388.1,110.6
		l1.4-0.1l0.1,0.5l-0.6,3.7c0.4,0.6,0.6,1.1,0.6,1.4l-0.5,0.1l0.6,0.9l-1.2,2.6c0.8,1,1.2,1.9,1.3,2.5l-0.9,0.1
		c-0.2-1.6-0.9-2.7-2.2-3.3v0.9l-0.8,0.1l-0.5-3.5l-0.5,0.1c0.1,0.4,0.1,0.9,0.1,1.5c0,0.7,0,1.5-0.1,2.5h0.5
		c-0.2,0.7-0.4,1.2-0.4,1.5l-0.9-0.4l0.4-1.1c0-0.3-0.1-0.5-0.4-0.5h-0.1v-3.5l-0.1-2l-1.2-1.4v-0.5l1.8-0.8
		c0.9,0.5,1.8,0.7,2.6,0.7h0.4l0.1,0.5l-1.4,0.2l0.4,3.5h0.4c0.7,0,1.1,0.4,1.2,1.3h0.5C388.3,114.1,388.2,111.5,388.1,110.6z
		 M382.9,78.1l0.9-0.1V79h-0.1C383.2,79,382.9,78.7,382.9,78.1z M385.6,99.8l0.2,2.5l-0.9-0.4l-0.8,1.7l0.5-0.1c0-0.6,0.3-1,0.8-1.1
		l0.1,0.9l0.9-0.1v-0.2c0-0.5,0.2-1.1,0.7-1.9H387c-0.6,0-0.9-0.4-0.9-1.3H385.6z M384.4,97.9l-0.2,2l0.9-0.1l-0.2-2L384.4,97.9z
		 M384.2,104.5l0.1,1.5l0.5-0.1l-0.1-1.4H384.2z M384.4,106.5l0.1,1.5l0.5-0.1l-0.1-1.4H384.4z M384.5,113.1
		c0.1,0.5,0.1,0.9,0.1,1.2c0,0.6-0.1,1-0.2,1.4l0.9,0.4l-0.4-3H384.5z M384.6,86.1c0.2,0.6,0.5,0.8,0.9,0.8h0.1l-0.1-0.9L384.6,86.1
		z M384.8,92.2l0.1,1.1l0.5-0.1l-0.1-0.9H384.8z M385.4,97.7v0.5c0.2,0.6,0.5,0.9,0.9,0.9h0.1l-0.1-1.5L385.4,97.7z M385.6,104.4
		l0.1,0.9h0.5l-0.1-1.1L385.6,104.4z M385.9,94.5l-0.2,2.6c0.6-0.1,0.8-0.5,0.8-1.3v-0.2l-0.1-1.1H385.9z M385.8,121.2l0.9-0.1
		c0.1,0.3,0.3,0.8,0.7,1.4l-0.9,0.6l-0.6-0.9L385.8,121.2z M387.2,84.3v0.1c0,0.6-0.4,1.4-1.2,2.6l0.5-0.1l-0.4,1.1l0.1,0.5h0.9
		l-0.6-0.9c0.8-0.2,1.2-0.8,1.2-2v-0.7l-0.1-0.5H387.2z M386.5,90.5v0.9h0.5v-1.1L386.5,90.5z M387.6,109.7l0.1,2l-0.9,0.1l-0.1-0.9
		C386.7,110.2,387.1,109.8,387.6,109.7z M387.7,79.2l0.1,1.4v0.4c0,0.9-0.2,1.8-0.6,2.8l0.9-0.1v-0.2c0-0.6,0.2-1.9,0.5-3.9V79
		L387.7,79.2z M387.6,96.4c0.1,0.6,0.1,1.2,0.1,2c0,0.8,0,1.7-0.1,2.6c0.6-0.1,0.8-0.5,0.8-1.3v-0.4l-0.4-3H387.6z M388,94.9v0.9
		h0.5v-1.1L388,94.9z M388.9,86.6c-0.3,2.6-0.5,4.1-0.5,4.6l0.1,0.5h0.5c0.3-2.6,0.5-4.1,0.5-4.6l-0.1-0.6L388.9,86.6z M388.9,123.3
		l0.9-0.1l0.2,2l-0.9,0.1L388.9,123.3z M389.1,70.3l0.2,2.5h0.5l0.2-2.6L389.1,70.3z M389.1,92.7l0.1,1.1h0.5l-0.1-1.1H389.1z
		 M389.3,67.2l0.1,0.5c0.2,0.6,0.5,0.9,1.1,0.9l-0.1-0.6c-0.1-0.6-0.4-0.8-0.8-0.8H389.3z M389.5,101.3v0.6c0,0.6-0.1,1.1-0.2,1.5
		c0.1,0.3,0.2,0.5,0.5,0.5l-0.2,2l0.2,1.5l0.5-0.1c-0.1-0.5-0.1-1-0.1-1.5c0-1.3,0.1-2.8,0.4-4.6L389.5,101.3z M389.4,81.4l0.2,2.6
		l0.9-0.6c0,0.2,0.1,0.4,0.4,0.4h0.1l-0.1-0.9l-0.9,0.1v-0.5l0.4-1.1H389.4z M389.7,98.8l0.2,2l0.5-0.1v-0.5c0-0.6,0.1-1.1,0.2-1.5
		L389.7,98.8z M390.1,78.8v1.1l0.5-0.1v-0.9H390.1z M390.4,96.1l-0.4,1.1v0.6l0.5-0.1c0-0.3,0.1-0.8,0.4-1.5H390.4z M390.6,87.9V89
		l0.5-0.1v-0.9H390.6z M391.3,99.6l1.4-0.2l-0.2-1.4C392.1,98,391.7,98.5,391.3,99.6z M391.5,79.2l0.1,1.1l0.5-0.1l-0.1-0.9H391.5z
		 M391.5,83.8v0.5l0.9-0.1v-0.5L391.5,83.8z M391.6,103.2l0.1,1.4h0.5l-0.1-1.5L391.6,103.2z M392.3,96.4l0.1,0.9h0.5l-0.1-1.1
		L392.3,96.4z M392.5,110.6v1.1l0.5-0.1v-0.9H392.5z M392.7,76.4V77l0.9-0.1v-0.5H392.7z M392.9,74.9l0.9-0.1l-0.1-0.9
		C393.2,74,392.9,74.4,392.9,74.9z M393,66.7l0.1,0.5h0.9l-0.1-0.6L393,66.7z M393.2,94.8l0.9-0.1l-0.1-0.9
		c-0.6,0.2-0.8,0.5-0.8,0.9V94.8z M393.3,105l0.1,1.5l0.5-0.1l-0.1-1.4H393.3z M393.5,84.6l0.1,0.9h0.5l-0.1-1.1L393.5,84.6z
		 M393.5,98.8l0.1,1.1c0.4,0.9,0.7,1.4,1.1,1.4c0.6-0.5,1.1-0.7,1.4-0.7l-0.1-0.5C396,99.5,395.2,99,393.5,98.8z M393.8,123.3
		c0.6,0,1,0.3,1.1,0.8v1.1l-0.9,0.1L393.8,123.3z M394,71.2l0.1,1.1l0.5-0.1l-0.1-0.9H394z M394.1,86l0.1,0.5l0.8-0.1v-0.5L394.1,86
		z M394.1,104.4l0.1,0.9h0.5l-0.1-0.9H394.1z M394.1,126.9l0.9-0.1l0.1,0.9v0.2c0,0.6-0.3,0.9-0.8,0.9L394.1,126.9z M394.2,82.5
		l0.1,0.9l0.9-0.1l-0.1-0.9L394.2,82.5z M394.3,101.8v0.5h0.9v-0.6L394.3,101.8z M394.8,79.3l0.1,1.1l0.9-0.1l-0.1-1.1L394.8,79.3z
		 M394.8,97.1l0.1,1.5l0.5-0.1l-0.1-1.4H394.8z M394.9,111.9l0.2,2l0.5-0.1v-0.5c0-0.6,0.1-1.1,0.2-1.5L394.9,111.9z M395.4,62.4
		v0.5c0,0.8-0.1,2.2-0.4,4.3v0.5l0.5-0.1v-0.4c0-0.7,0.2-2.1,0.5-4.3l-0.1-0.5H395.4z M395.1,118l0.1,1.1l0.9-0.1l-0.1-1.1
		L395.1,118z M395.2,104.7v1.1l0.5-0.1v-0.9H395.2z M395.2,109.3l0.9-0.1l-0.1-0.9c-0.6,0.2-0.8,0.5-0.8,0.9V109.3z M395.3,115.5
		v0.5l0.9-0.1v-0.5L395.3,115.5z M395.4,93.5l0.1,1.1l0.5-0.1l-0.1-0.9H395.4z M395.4,116.4l0.1,1.1l0.5-0.1l-0.1-0.9H395.4z
		 M405.6,45l0.1,0.9c0.3,0,0.5,0.2,0.5,0.5c-0.6,0.1-0.8,0.5-0.8,1.3V48l-0.9-0.5l-0.5,0.1V48c0,0.8-0.3,1.2-0.8,1.2l1.2,2l-1.9,0.1
		l0.6,0.9l0.1,0.6c-1.3,5.2-2.3,8.2-3,9c0.4,0.6,0.6,1.1,0.7,1.4c-0.8,0.1-1.4,1.7-1.9,4.9l0.1,1.4c-0.6,1.6-0.8,3.2-0.8,4.7v1.1
		h-0.1c-0.9,0-1.4-0.6-1.5-1.9h-0.5l-0.1,2.6l0.8-0.6c0.6,0,1,0.3,1.1,0.9v0.5L397,77l-0.9-0.5c-0.2,0.7-0.4,1.3-0.4,1.7
		c0.4,0.6,0.6,1.1,0.7,1.4h0.5l-0.1-0.6c-0.4-0.6-0.6-1-0.6-1.4h0.5c0.6,0,1,0.3,1.1,0.8l-0.4,1.1c0.3,0,0.5,0.2,0.5,0.5h-0.5
		l0.6,0.9L398,82l-0.9,0.1c0.4,0.6,0.6,1.1,0.6,1.4h0.5v-0.4c0-0.9,0.3-2.2,0.9-3.9H399c-0.2,0-0.4-0.2-0.4-0.5
		c0.6-0.4,1-0.6,1.4-0.6c-0.1-0.6-0.4-0.9-0.9-0.9H399l7.7-31c-0.4-0.6-0.6-1-0.6-1.4L405.6,45z M395.7,91.9l0.1,1.1l0.5-0.1
		c0.9-2.4,1.4-4,1.4-4.6v-0.1c-1.3,0.6-2,1.7-2,3.3V91.9z M395.7,101.2l0.1,0.9h0.5l-0.1-1.1L395.7,101.2z M395.8,120l0.1,1.5
		l0.5-0.1l-0.1-1.5L395.8,120z M395.9,98.1L396,99h0.5l-0.1-1.1L395.9,98.1z M396,122.5l0.1,1.1l0.5-0.1l-0.1-0.9H396z M397,67.8
		c-0.4,1.9-0.6,3-0.6,3.2c0.5-0.1,0.9-0.6,1.3-1.7l-0.2-1.5H397z M396.5,58.2l0.1,0.9c0.6,0,0.8-0.3,0.8-0.8v-0.2L396.5,58.2z
		 M396.6,87.2l1.1,0.5l0.1-3.7C397.2,84.1,396.8,85.2,396.6,87.2z M396.6,101.1l0.1,0.5l0.9-0.1l-0.1-0.5L396.6,101.1z M397.3,70.9
		l0.1,0.9h0.5l-0.1-1.1L397.3,70.9z M397.7,64.7v0.9c0.6-0.1,0.9-0.4,0.9-1.1L397.7,64.7z M397.7,120.2l0.1,0.6l0.9-0.1l-0.1-0.6
		L397.7,120.2z M397.9,122.8l-0.2,2l1.4-0.1c-0.4-0.6-0.6-1.2-0.7-2L397.9,122.8z M398.4,99.8l0.6,0.9l-0.4,1.1l1.1,0.5l-0.4-3.1
		L398.4,99.8z M398.7,107.4l-0.2,6.6l0.9,0.4c-0.2-1.5-0.2-3.7-0.2-6.6v-0.5L398.7,107.4z M398.7,102.8v1.1c0,0.8,0,1.6-0.1,2.5
		c0.6-1.7,1.2-2.6,1.7-2.7l-0.1-1.1l-0.9,0.7c0-0.3-0.1-0.5-0.4-0.5H398.7z M399.2,94.1l-0.1,2.6l0.1,0.9h0.5v-0.5
		c0-1,0.2-1.6,0.7-1.7c-0.4-0.6-0.6-1.1-0.7-1.4H399.2z M399.3,58.3l0.1,1.5c0.6-0.1,1.1-0.8,1.8-2.2l-1.1-0.4
		c-0.6,0.2-0.8,0.5-0.8,0.9V58.3z M399.8,90.4l-0.2,2.6l0.1,0.5h0.5l0.2-2.6l-0.1-0.5H399.8z M399.7,89l0.1,0.9l0.9-0.1l-0.1-0.9
		L399.7,89z M399.9,55.3l0.2,1.5l0.5-0.1v-0.2c0-0.3,0.1-0.7,0.2-1.3L399.9,55.3z M400.9,82.1v0.4c0,1.1-0.3,3.1-0.8,5.9l0.9-0.1
		c0-0.6,0.1-2.5,0.4-5.7v-0.5H400.9z M400,105.7v0.6l0.9-0.1v-0.5H400z M400.3,53.7l0.1,0.9h0.5l-0.1-1.1L400.3,53.7z M400.5,78.1
		v0.6l0.9-0.1l-0.1-0.6L400.5,78.1z M401.6,125.4h0.5l0.6,6l0.8,3.4c-0.3,0-0.8,0.2-1.3,0.7l-0.6-0.9l0.9-0.1
		c-1.1-4.5-1.7-7.3-1.9-8.5L401.6,125.4z M400.9,96l0.1,0.9h0.5l-0.1-1.1L400.9,96z M401.2,31.1v0.4c0,0.3-0.1,0.7-0.2,1.2l0.9-0.1
		l-0.2-1.4H401.2z M401.8,78c-0.3,1.8-0.5,3-0.5,3.4v0.2c0.5-0.1,0.8-1.1,1.1-3.2l-0.1-0.5H401.8z M401.8,109.6l0.9-0.1l0.1,1.1
		l0.8-0.6l0.1,0.9v0.1c0,0.5-0.4,1-1.2,1.5l-0.6-0.9L401.8,109.6z M402.3,77.4h0.5l0.2-2.1c-0.5,0.1-0.7,0.4-0.7,1.1V77.4z
		 M403.2,104.8l0.1,1.1h-0.9C402.4,105.3,402.7,104.9,403.2,104.8z M404.8,64.4l-0.4,2.1h-0.4l-1.1-0.4l0.1,0.5l0.7,3l-0.4,1.1
		l0.9-0.1c0.1-2.8,0.5-4.9,1.3-6.3L404.8,64.4z M403.6,90.5l0.5-0.1l0.1,1.1l-0.1,2.6l-0.9,0.1L403.6,90.5z M403.6,62.5
		c0,0.4-0.1,0.9-0.4,1.5l0.9-0.1l-0.1-1.4H403.6z M405,94.4h0.5v0.5c-0.2,0.6-0.2,1-0.2,1.3v0.2l-1.9,0.2l-0.1-1.1
		C403.7,95.6,404.3,95.2,405,94.4z M403.2,118.6l0.9-0.1v0.6l-0.8,0.1L403.2,118.6z M404.6,86.4l0.2,2h-0.9l-0.1-0.9
		C403.8,86.7,404.1,86.4,404.6,86.4z M404.2,49.7l0.5-0.1l0.1,1.1h-0.5L404.2,49.7z M404.5,58.3l1.1,0.4l-0.1-1.1h0.5l0.1,0.9h0.9
		c0.8-4.6,1.8-6.9,3.1-7l-0.7-2.5h-0.5c-1.3,4.2-2,6.9-2,8v0.4l-0.9,0.1l-0.1-0.5V57c0-1.1,0.7-3.9,2-8.3l0.2-2.1
		C407.8,46.8,406.6,50.7,404.5,58.3z M404.5,62.8c0.2,0.6,0.5,0.9,0.9,0.9h0.1l-0.1-1.1L404.5,62.8z M405.7,60.2v0.2
		c0,0.3-0.1,0.8-0.4,1.3l0.1,0.5h0.5v-0.4c0-0.3,0.1-0.7,0.2-1.2v-0.6L405.7,60.2z M405.7,37.7l0.1,0.5l0.9-0.1l-0.1-0.5L405.7,37.7
		z M405.8,42.8c0.2,0.6,0.5,0.9,1.1,0.9l-0.1-1.1L405.8,42.8z M407.4,71.2l0.1,0.9v0.2c0,0.6-0.3,0.9-0.8,0.9l-0.1-1.1
		C406.5,71.7,406.8,71.3,407.4,71.2z M408.4,44.6v0.9h0.5v-1.1L408.4,44.6z M408.7,43.1l0.1,0.9h0.5l-0.1-1.1L408.7,43.1z
		 M409.5,32.8l0.9-0.1l0.1,0.9l-0.9,0.1L409.5,32.8z M413.2,40l0.9-0.1l0.1,0.9l-0.9,0.1L413.2,40z"/>
	<path id="XMLID_487_" class="st0" d="M435.1,58.9c0.6,2,1.4,3.2,2.6,3.8c0.1-1.3,0.5-2,1.3-2h0.5l-0.8,2.4c0.6,0,0.9,0.5,0.9,1.4
		l1.4-1.1h1.4v0.5l-1.3,2.4v0.5h0.9c0.1-1.6,0.5-2.4,1.3-2.5h0.5l0.1,0.5l-0.5,0.9h0.5c0.6-0.3,1.2-0.5,1.9-0.6c0,0.5-0.7,2.9-2,7.2
		c0.6,1.4,1,2.8,1.1,4.3h-0.5l0.6,0.9l-2.6,6.7l0.9,0.4v0.7c0,1.4-0.4,2.2-1.2,2.2l0.5,0.9v1.1c0,0.2-0.1,0.4-0.4,0.4l0.5,0.9v0.4
		c0,1.3-0.4,2-1.3,2l0.5,0.9l0.1,0.9c0,0.6-0.3,0.9-0.9,0.9c0-0.2-0.1-0.4-0.4-0.4h-0.1c0,0.6-0.3,1.3-0.8,2.4h0.5l0.9-0.6v0.9
		c-0.6,4.8-1.1,7.2-1.5,7.2l0.5,0.9l-0.8,1.4h0.9l-0.5,0.9c0,0.3,0.2,0.5,0.5,0.5c-0.5,1.1-0.7,2.1-0.7,3v0.4h0.5l-0.5,0.9l0.2,5.7
		h-0.5c-0.6,0-1-1.1-1.1-3.2h-0.5l0.2,4.7l0.9-0.5l0.5-0.1v0.5l0.7,4.7l-1.1-0.5l0.1,0.5c0.1,0.7,1.1,1.8,3,3.2
		c0.7,1.6,1.1,2.7,1.1,3.3c-0.6,0-0.8,0.2-0.8,0.7v0.2c-2.3-0.1-3.4-0.3-3.4-0.7l-0.9,0.5c-2.2-1.4-3.9-2.1-5.1-2.1h-0.1
		c0,0.6-0.3,0.9-0.9,0.9h-0.5c-1.3,0-1.9-0.3-1.9-0.8c-1.3,0.3-1.9,0.7-1.9,1.1c-0.5,0-1.9-1.2-4.4-3.6l-0.9,0.5h-0.5
		c-0.1-0.6-1.1-2.4-3.2-5.4l0.5-2.5H419c-0.9,0-1.4-1.1-1.5-3.2l-0.1-1.9l0.4-2.8l-0.5-0.9l0.4-2.8l-0.1-2.4h0.9v-0.9h-0.9l-0.1-1.4
		h0.9v0.9l0.5-0.1v-1.9l-0.9,0.1c0.6-0.9,1.2-4.1,1.9-9.6c4.3-22.3,8.3-33.6,12.2-33.7l0.9,0.4L435.1,58.9z M419.1,122.2v0.5h0.9
		v-0.5H419.1z M422.6,126.4v0.9h0.5v-0.9H422.6z M432.5,95.1l0.9-0.1v-0.9C432.8,94.2,432.5,94.6,432.5,95.1z M435.3,84.6l0.1,0.9
		l0.5-0.1l-0.1-0.9L435.3,84.6z M435.8,83.5h0.5l0.4-2.4c-0.6,0-0.8,0.4-0.8,1.2V83.5z M436.5,79.8l0.1,0.9h0.5l-0.1-0.9H436.5z
		 M438.1,74.4v0.2c0,0.8-0.4,2-1.2,3.7v0.5h0.5l1.3-3.9l-0.1-0.5H438.1z M446.1,9.2l2.7,2.7l0.1-0.6h0.7c4.7,3.4,7.1,6.5,7.1,9.3
		c0,0.2,0,0.5-0.1,0.7c0.2,0.1,0.2,0.4,0.2,0.8v0.6l-0.1,0.4c-1.8,5.1-2.8,8-2.8,8.8c0.2,0,0.2,0.1,0.2,0.2v0.1
		c-0.5,0-0.7,0.2-0.7,0.6c0.1,0.3,0.1,0.6,0.1,0.8V34c-0.6,0-1.6,2.6-3.1,7.7c-0.8,0.9-2,1.8-3.5,2.6V44c0-0.3-0.2-0.5-0.6-0.5
		c-0.2,1-0.4,1.5-0.7,1.5h-0.5c-0.6-0.1-0.8-0.6-0.8-1.5v-0.4l-0.7,0.2v-3.1l-0.6-0.1l0.2,0.7l-0.4,2.1c0,0.4-0.2,0.6-0.5,0.6h-0.2
		l-0.4-0.1c-0.6,0-0.9-1.3-1.2-3.9l-0.7-0.5l-0.1,1.3h-0.4c-0.7-0.2-1.1-0.9-1.1-2.2c0-0.5,0-1,0.1-1.7l-0.7,0.2l-0.5-1.2
		c0-0.2,0.1-0.2,0.2-0.2h0.1l-0.2-0.8l0.5-3.7l0.1-3.6l0.7,0.1l0.2-1.8l0.4,0.1l-0.1-1.8c1.1-4.4,2-6.6,2.6-6.6l-0.2-0.7v-0.4h0.7
		l0.2-2c0.1-0.2,0.2-0.4,0.5-0.4c0-0.2-0.1-0.3-0.4-0.4c0.9-2.8,1.6-4.3,2-4.3l0.6,0.5c0.2-0.4,0.4-0.6,0.7-0.6H446.1z M438,110.5
		v1.4h0.5v-1.4H438z M439.8,69.7l0.1,0.5l0.9-0.1l-0.1-1.4C440.1,68.8,439.8,69.1,439.8,69.7z M439.8,98.6v1.4h0.5v-1.4H439.8z
		 M440.5,37.5l-0.1,0.6l0.7,0.1l0.1-0.7H440.5z M440.7,35.4c0.2,0.5,0.2,0.8,0.2,1.1l0.4,0.1l0.1-1.1L440.7,35.4z M440.7,67.2v0.9
		h0.5v-0.9H440.7z M440.9,34.7V35l0.7,0.1v-0.4L440.9,34.7z M441,63.9l0.1,0.9h0.5l-0.1-0.9H441z M442.5,75.7l0.9-0.1l-0.1-0.9
		C442.8,74.8,442.5,75.2,442.5,75.7z M444.2,71.8h0.5l0.1,0.9h-0.5L444.2,71.8z M445,69.5l0.5-0.1l0.1,0.9l-0.5,0.1L445,69.5z"/>
	<path id="XMLID_508_" class="st0" d="M458.3,114.3c3.9,1.2,7.7,2.7,11.4,4.5c1.7,0.9,3,2.1,4.1,3.8c-0.9,5.4-1.8,8.8-2.7,10.4H470
		v-0.7h-0.4c0,0.7-0.2,1.1-0.7,1.1c0-0.3-0.3-0.7-0.9-1.1l-1.1,0.7h-1.1c0-0.6-0.8-1.3-2.5-2.1c-0.3,0.9-0.6,1.4-0.9,1.4H462
		c-0.6-0.9-1.3-1.4-2.1-1.4v-0.6l-0.7,0.4c-0.5,0-0.8-0.9-0.9-2.8h-0.4v0.7h-0.7c0-0.6-0.5-2.4-1.4-5.2c0.2-4,0.4-6.4,0.4-7.2
		L458.3,114.3z"/>
	<path id="XMLID_510_" class="st0" d="M496.8,59.4h0.1c0.2,0,0.4,0.1,0.4,0.4l2.4-0.6l1.4,0.8l1.4-1.1c0.1,1.1,1.9,2.1,5.4,2.8
		l0.1,0.9l-0.5,0.9h0.5c0.6-0.4,1.2-0.6,1.9-0.7v0.5l-0.4,1.1h0.1c0.6,0,0.9,0.9,1.1,2.7l0.9-0.6v0.5c-0.4,1.3-0.8,2-1.3,2l-0.9-0.4
		v0.5l0.7,2.2l1.8-1.1l0.1,0.9v0.1c0,0.6-0.6,0.9-1.8,0.9v0.5h0.9l0.1,0.9l-2.4,0.6l0.6,0.9c-1.2,0.6-1.8,1.1-1.8,1.5l0.1,1.4
		l0.9-0.1c-0.3,3.4-0.5,5.2-0.5,5.3l0.9-0.1c0,0.6-0.3,1-0.8,1.1c-0.1-0.3-0.3-0.5-0.6-0.5v0.4c0,0.8-0.2,1.8-0.6,3.1h-0.5l-0.1-0.9
		l-0.5,0.1l0.1,1.9h0.2c0.5,0,0.7,0.3,0.8,0.8l0.9-0.6l0.1,1.4h-0.5l-1.1-0.4l-0.1,4.3l-0.5,0.1l-0.9-0.5l-0.1,3.4l0.1,1.9l0.9-0.1
		l-0.1,4.7l0.1,0.5l-0.9,0.1l-0.1-0.5c0-0.3,0.1-1.6,0.2-3.8l-0.1-0.5H505l-1.5,26.3H503l0.6,0.9v0.5c-0.5,0.1-0.7,0.6-0.7,1.5v0.8
		l-0.9,0.1l-0.1-0.9l0.5-0.9l-1.4,0.1c0.3,0.6,0.5,1,0.6,1.4c-0.3,2.5-0.7,3.8-1.1,3.8c0,0.3,0.2,0.5,0.5,0.5l-0.1,4.7l0.1,0.9h0.5
		l-0.1-0.9l0.9-0.1c-0.1,0.9-0.1,1.6-0.1,2.2v1.1h-0.1c-0.6,0-0.9-0.6-1.1-1.8l-0.9,0.1l-0.2,2.4l0.7,1.9c-0.6,0.3-1.2,0.5-1.9,0.6
		c0.2,0.6,0.5,0.8,0.9,0.8h0.1v-0.1c0-0.2,0.1-0.4,0.4-0.4l0.1,0.5l0.8-0.6h0.5l0.1,0.5v0.2c0,1-0.4,1.9-1.2,2.7
		c0.3,0.6,0.5,1,0.6,1.4l-1.1-0.5l-0.9,0.1l0.1,0.5l1.4-0.1v0.5c-0.2,6-2.7,9.2-7.7,9.7c-2.4,0.2-3.7,0.7-3.7,1.3
		c-0.3,0-0.5-0.2-0.6-0.5l-2.2,0.7h-0.5c-0.3,0-0.5-0.2-0.6-0.5l-0.8,0.6h-0.9c-1.9,0-3.2-0.7-4-2l-0.8,0.6
		c-16.9-4.7-25.4-8.3-25.7-10.6l0.4-0.9c-0.3,0-0.5-0.2-0.5-0.5c0.6,0,0.8-0.2,0.8-0.7v-0.2c-0.3,0-0.5-0.2-0.5-0.5
		c0.6-0.1,0.8-0.4,0.8-0.8v-0.2h-0.1c-0.2,0-0.4-0.1-0.4-0.4h0.6c0.2,0,0.4,0.1,0.4,0.4l0.9-0.6c8,1.3,14.9,3.6,20.5,6.9
		c0.5-0.4,1.4-0.6,2.8-0.7c0-0.3-0.2-0.5-0.5-0.5c0.3-1.3,0.7-1.9,1.2-2c0.1,0.3,0.3,0.5,0.6,0.5l0.7-2l-0.1-1.4
		c0.6-0.1,0.8-0.4,0.8-0.8v-0.1c-0.3-0.6-0.5-1.1-0.6-1.4l1.1,0.4l-0.1-0.9l-0.6-0.8l0.9-0.1l-0.1-2.4c0.5-2,1-3,1.5-3
		c0-0.7-0.2-1.3-0.6-1.9v-0.6c0-1.1,0.1-3.1,0.4-6c-0.3-0.6-0.5-1.2-0.6-1.9l0.9-0.6c-0.1-0.2-0.2-0.4-0.5-0.4H483
		c0.1-4.3,0.5-7.4,1.2-9.1l-0.6-0.9l0.8-1.5l-0.9-0.4c0.2-5.9,0.4-9.9,0.8-12l-0.6-0.9l0.8-1.9c-0.3,0-0.5-0.2-0.5-0.5
		c0.6-0.1,0.8-0.4,0.8-0.8V97l-0.7-1.9c0.2-2.5,0.5-4.5,0.9-5.8c0-0.3-0.2-0.5-0.5-0.5v-0.6c0-1.1,0.4-2.2,1.1-3.2
		c-0.3-0.6-0.5-1.1-0.6-1.4c0.6-0.1,0.8-0.4,0.8-0.8v-0.2l-0.5-0.8c3.1-11.7,5.2-18.2,6.4-19.6l1.7-2h0.5c0.1,0.9,0.3,1.3,0.6,1.3
		C496,60.7,496.7,60,496.8,59.4z M484.4,147.3l0.1,1.4h0.5l-0.1-1.4H484.4z M484.5,159.7l0.1,0.9l1.9-0.2c-0.1-0.6-0.4-0.8-0.8-0.8
		h-0.2L484.5,159.7z M484.8,145.9l0.1,0.9h0.5l-0.1-0.9H484.8z M485.5,142.5l1.1,1.4l-1.4,0.1l0.1,1.4c0.7-0.7,1.5-1.1,2.2-1.2
		c-0.3-0.6-0.5-1.2-0.6-1.9L485.5,142.5z M486.3,141.5l0.5-0.1l0.4-1.9c-0.6,0.1-0.8,0.5-0.8,1.3V141.5z M487.4,131
		c0,0.3-0.1,0.8-0.4,1.4v0.5h0.5c0-0.4,0.1-0.9,0.4-1.5v-0.5L487.4,131z M487.5,121.9l0.2,2.4h0.5l-0.2-2.4H487.5z M487.6,128.2
		l0.1,1.3h0.5L488,128L487.6,128.2z M488,110.5l0.2,2.8l0.5-0.1l-0.2-2.8L488,110.5z M488.1,107.1l0.2,1.9h0.5l-0.2-1.9H488.1z
		 M488.2,114.3l0.1,0.9l0.5-0.1l-0.1-0.9L488.2,114.3z M488.4,94.8l0.1,1.4l0.5-0.1l-0.1-1.4L488.4,94.8z M488.8,92.4l0.1,1.4
		c0.6-0.1,0.8-0.4,0.8-0.8v-0.2L488.8,92.4z M489.5,140.2c0.1,0.3,0.1,0.7,0.1,1.1c0,1-0.2,2.3-0.6,3.8l0.1,1.9h0.5v-1.1
		c0-1.7,0.3-3.6,0.8-5.7H489.5z M489,151.2l0.6,0.9c0.6-0.4,1-0.6,1.4-0.6l-0.1-0.5L489,151.2z M489.3,87.1V88h0.5v-0.9H489.3z
		 M489.7,131.2l-0.2,2.4h0.5l0.8-0.6l0.1,0.5l-0.5,1.1l0.1,0.9l0.5-0.1l0.2-2.4c-0.3,0-0.5-0.2-0.5-0.5h0.9
		c-0.1-0.5-0.6-0.9-1.5-1.3H489.7z M489.8,122.2l0.1,0.9l0.5-0.1l-0.1-0.9L489.8,122.2z M490.1,136v0.7c0,0.7-0.1,1.3-0.2,1.7v0.5
		h0.5l0.7-3L490.1,136z M490.4,128.7l0.1,1.4h0.5c0-0.3,0.1-0.8,0.4-1.4H490.4z M491.3,126.9l-0.5,0.9l0.1,0.5h0.5V128
		c0-0.5,0.3-0.7,0.8-0.8v-0.5L491.3,126.9z M491.1,125.4v0.9l0.5-0.1v-0.8H491.1z M491.6,142.9l0.1,0.5l0.9-0.1l-0.1-0.5
		L491.6,142.9z M491.7,143.9l0.1,0.9h0.5l-0.1-0.9H491.7z M492.3,67.3l-0.4,1.9c0.6,0,0.8-0.4,0.8-1.2v-0.7H492.3z M492.4,135.3
		l0.1,0.9l0.9-0.1C493.4,135.5,493.1,135.3,492.4,135.3z M493.2,138.6l0.1,1.4l0.5-0.1l-0.1-1.4L493.2,138.6z M506.1,26.5l3.8-0.4
		h0.6c1.5,0,2.3,0.6,2.5,1.7c0,0.3-0.2,0.5-0.5,0.5l0.7,2.4l0.4,4.7v0.2c0,0.5-0.3,0.7-0.8,0.7c0.3,0.6,0.5,1.1,0.6,1.4h0.5
		c0-1.3,0.4-1.9,1.2-2l0.1,0.5l-1.7,3.4c0.3,0,0.5,0.2,0.5,0.5c-0.6,0.3-1,0.5-1.3,0.6l0.1,0.9h0.2c0.7,0,1.1,0.3,1.2,0.8
		c-0.2,0.9-1.1,1.5-2.7,1.7l0.1,0.5h0.7c0.8,0,1.2,0.2,1.2,0.7l-0.8,0.6h-0.5L512,45l-0.9,0.1v0.5l0.6,0.9h-0.5l-1.5-0.8
		c-0.2,0-0.4,0.1-0.4,0.4v0.1c-2.8-0.1-4.3-0.3-4.4-0.6c-0.2,0.1-0.4,0.2-0.4,0.5v0.1h-1.1c-5.3,0-8.1-1.8-8.5-5.4v-1.3
		c0-4.7,1.9-8.2,5.7-10.5c0.6,0.2,1.2,0.4,1.9,0.4v0.5c0,0.6-0.1,1-0.2,1.4v0.5l0.5-0.1c0-0.6,1.3-1.7,3.9-3.5l-0.5-0.9L506.1,26.5z
		 M495.1,122.2l0.1,0.9l0.5-0.1l-0.1-0.8H495.1z M495.8,135v0.9l0.9-0.1c0-0.6-0.2-0.8-0.7-0.8H495.8z M495.9,125.4l0.1,0.9h0.5
		l-0.1-0.9H495.9z M496.7,38.2v0.5l0.9-0.1v-0.5L496.7,38.2z M497.1,134l0.1,0.9l0.5-0.1l-0.1-0.9L497.1,134z M497.9,149.6v0.2
		c0,0.3-0.1,0.7-0.4,1.2l0.1,0.5h0.5v-0.2c0-0.4,0.1-0.8,0.4-1.3l-0.1-0.5L497.9,149.6z M497.8,114.9l0.1,0.9l0.9-0.1l-0.1-0.9
		L497.8,114.9z M497.9,99.6c0.2,0.6,0.5,0.8,0.9,0.8h0.1l-0.1-0.9L497.9,99.6z M497.9,104.8v0.5h0.9v-0.5H497.9z M498.1,118.2
		l-0.2,2.8v0.5l0.5-0.1l0.2-2.4v-0.9L498.1,118.2z M498.1,152.4l0.6,0.8l-0.8,1.5l0.1,0.5l0.4-0.1c0.8-1.6,1.2-2.8,1.2-3.5v-0.2
		L498.1,152.4z M498.1,107.2l0.1,1.4h0.5l-0.1-1.4H498.1z M499.2,137l0.1,0.9c0.6,0,0.8-0.2,0.8-0.7V137H499.2z M501.6,141.6v0.9
		h-0.9C500.7,142,501,141.6,501.6,141.6z M501,74.2l0.1,0.9h0.4v-0.9H501z M501.6,125.9l0.1,0.9h0.5v-0.5c0-0.6,0.1-0.9,0.4-0.9
		c0-0.3-0.2-0.5-0.5-0.5c0-1.8,0.4-3.3,1.1-4.4H503c-0.6,0-0.9-0.4-0.9-1.3c0.2-0.5,0.2-0.9,0.2-1.2v-0.4c-0.6,0.1-0.9,1.4-0.9,3.9
		C501.3,122.8,501.4,124.2,501.6,125.9z M501.4,134.5l0.9-0.1l0.1,2.4l-0.9,0.1v-0.5c0-0.3,0.2-0.5,0.5-0.6l-0.6-0.8V134.5z
		 M501.9,107.3c0,0.4-0.1,0.9-0.4,1.5l1.4-0.1v-0.5C502.9,107.6,502.5,107.3,501.9,107.3z M501.9,112.7v0.9c0,0.9-0.1,1.5-0.2,1.9
		l0.9-0.1l-0.2-2.8L501.9,112.7z M502,109.2l-0.2,3c0.6-0.1,0.8-0.5,0.8-1.3v-0.2l-0.1-1.4H502z M502.5,97.4v0.9l0.5-0.1v-0.9
		L502.5,97.4z M502.6,99.8l0.1,0.5l0.9-0.1l-0.1-0.5L502.6,99.8z M502.9,118.2l0.1,0.9h0.4v-0.9H502.9z M504.9,114.8l0.9-0.1
		l0.1,1.4H505L504.9,114.8z M505.1,111.3c0.6,0.1,1,0.4,1.1,0.9v0.5h-0.9L505.1,111.3z M505.2,80l0.1,0.5l0.8-0.1v-0.5L505.2,80z
		 M505.7,90.9v0.5c0,0.5-0.1,0.9-0.4,1.4h0.9l-0.1-1.9H505.7z M505.5,109.9h0.5l0.1,0.9h-0.5L505.5,109.9z M505.6,31.7l1.8-1.5
		l0.9,0.4v-0.9c-0.1-0.6-0.4-0.8-0.8-0.8h-0.2c-1.1,0.3-1.7,1.1-1.7,2.5V31.7z M505.6,89.9l0.1,0.5h0.9l-0.1-0.5H505.6z M506.6,85.1
		l0.1,0.9h0.5l-0.1-0.9H506.6z M506.6,101.8l0.9-0.1l0.1,1.9v0.2c0,0.5-0.3,0.8-0.8,0.8l-0.1-0.9c0-0.3,0.2-0.5,0.5-0.6l-0.6-0.8
		V101.8z M506.9,98.5l0.9-0.1v0.9l-0.9,0.1V98.5z M507.2,81.8l0.1,0.9l0.5-0.1l-0.1-0.9L507.2,81.8z M509.5,27.1l-0.2,2.5l0.8-0.6
		h0.1c0.6,0,0.9,0.6,1.1,1.8h0.5v-0.4c0-0.4,0.1-0.6,0.4-0.6C511.6,28.5,510.7,27.6,509.5,27.1z"/>
	<path id="XMLID_575_" class="st0" d="M554.9,60.6l5.7,4.1l-0.5,1.1v0.5c0.9,0,1.8,1.5,2.6,4.6c1.2,0,1.9,1.2,2,3.7
		c-0.6,0.1-0.9,0.4-0.9,1.1l2,0.9l-0.5,1.1l1.1,1.5v2.1c-2.2,1.3-4.7,2-7.3,2h-3.5c-0.4,0-0.6-0.2-0.6-0.5
		c-1.4,0.7-6.6,1.9-15.5,3.5c11.5,6.2,20.2,11,25.9,14.6c6.4,6.2,9.8,10.9,10.3,14c0.6,0,1.8,2.8,3.7,8.3h-0.6
		c0.4,0.6,0.6,1.1,0.6,1.5c-0.4,1-0.8,1.5-1.1,1.5l0.5,2.6v0.9c0,1.6-0.8,3.2-2.5,4.7h-1.7v0.5H573V134h-0.9l0.5,1.1v0.5
		c0,0.7-0.4,1.1-1.1,1.1h-1.1l-0.9-0.5c0,1.6-2.2,3-6.7,4.1c3.8-3.2,5.7-5.4,5.7-6.7l-2,1.5h-1.1v-1.5c0.8,0,2.3-0.9,4.6-2.6v-0.5
		h-0.5l-3.7,2h-0.5v-1.1h-0.6c0,1.1-0.5,1.7-1.5,1.7c0-0.4-0.2-0.6-0.5-0.6l-0.5,1.1c0.3,0,0.8,0.2,1.5,0.5c0-0.3,0.2-0.5,0.5-0.5
		v0.5c0,1.4-1.5,2.1-4.6,2.1v0.5h1.5v1.1c-3.3,1.7-5.6,2.6-6.7,2.6v-0.6h-1.1v1.1h-0.5v-1.5c0.7,0,1.1-0.4,1.1-1.1h-0.6
		c0,0.6-0.7,1.3-2,2.1v-1.1h-0.6v0.5c0.7,1.2,1.1,2.1,1.1,2.6h-1.1l-0.9-0.5v1.1h-0.6v-1.7c0.7,0,1.1-0.3,1.1-0.9v-0.6h-0.5
		c-1.7,1.2-2.6,2.1-2.6,2.6l-1.1-0.5c-0.3,0.6-0.5,1.1-0.5,1.5h-0.6v-1.1h-0.9c0,1-0.7,1.9-2.1,2.6l-3.1-0.5c-0.2,1.3-0.6,2-1.1,2
		h-1.5c0,0.3-0.2,0.5-0.5,0.5l-3.7-0.5c-1.3,0.6-2,1.1-2,1.5h1.1v0.6l-1.7,2l-0.9-0.5l-1.5,0.9h-1.1v-0.5l1.1-1.5v-1.1h-0.6l-2,1.5
		l-1.1-0.5c0,0.7-0.4,1.1-1.1,1.1l-2-0.6c-1.1,0.7-2,1.1-2.6,1.1l1.1,1.5c1,0,1.5-0.5,1.5-1.5h0.5c0.4,0,0.6,0.2,0.6,0.5l0.9-0.5
		c0.4,0,0.6,0.2,0.6,0.5l0.9-0.5l1.1,0.5c0-0.3,0.2-0.5,0.5-0.5l0.6,1.1c-0.5,0-1.2,0.9-2.1,2.6h-0.5v-1.1h-2l-2.6,0.5
		c-1-1.1-1.5-2.1-1.5-3.1h-0.6c0,0.4-0.2,0.9-0.5,1.5h1.1v0.6c0,0.6-0.7,0.9-2.1,0.9v0.6c0.1,0.6,0.4,0.9,1.1,0.9
		c0.1-0.6,0.4-0.9,1.1-0.9c0.6,0.3,1.1,0.5,1.5,0.5v1.1c-0.4,0-0.9,0.2-1.5,0.5l-1.1-0.5c-1.7,0.4-2.6,0.9-2.6,1.5h0.5
		c0.7-0.4,1.2-0.6,1.5-0.6v0.6c2.3-1,5-1.5,8.3-1.5l-0.9,1.5l0.9,0.5c0.9-2.1,1.7-3.1,2.1-3.1l0.5,1.1c-0.7,0.1-1.1,0.4-1.1,0.9h1.1
		l1.1-0.5c0.6,0.3,1.1,0.5,1.5,0.5v1.1l-2.6,0.6v-0.6l-3.6,1.5l-0.6-0.9l-5.1,2v0.5h0.9v1.1l-2.6,0.6l-3.1-0.6
		c-0.3,0-0.5,0.2-0.5,0.6l-2.6-0.6h-2.6v-0.5l0.6-1.1c-1.7,0-2.6-0.4-2.6-1.1c0.3,0,0.5-0.2,0.5-0.5l1.1,0.5c0.7,0,1.1-0.3,1.1-0.9
		v-1.1l-2.1-0.6l-0.5,1.1c-1.4-0.3-2.1-1-2.1-2l-0.9,0.5h-0.6c0-0.7-0.7-1.1-2-1.1c0.1-0.6,0.4-0.9,0.9-0.9c0,0.3,0.2,0.5,0.6,0.5
		l0.5-1.1c0-0.5-1.5-1.7-4.6-3.6c-0.4-0.7-0.6-1.2-0.6-1.5l0.6-1.1v-0.6H496v1.1h-0.9v-1.1l0.5-0.9c-0.5,0-1-0.5-1.5-1.5l0.5-1.1
		c3.1,0.3,5,0.8,5.7,1.5h4.7l3.1-0.5l1.1,0.5l21.2-6.2h1.5c0-0.5,5.5-3.1,16.6-7.8c7.7-4.3,13.6-8.9,17.5-14v-0.5
		c-2.7-1.7-5.8-3.2-9.2-4.7l-1.1,0.6c-15.8-6.3-25.2-11.5-28.4-15.5c0.3,0,0.5-0.2,0.5-0.6c-2,0-3.4-1.5-4.1-4.6c-1,0-1.7-1.9-2-5.7
		c-1.4-1.5-2.1-3-2.1-4.6v-0.6h1.1v-1.5c-1.1-0.9-2-2.8-2.6-5.7c0.3-1.3,1-2,2-2c-0.3-0.7-0.5-1.2-0.5-1.5l0.5-1.1
		c-0.3-0.7-0.5-1.2-0.5-1.5l1.1,0.5c0-1.3,1.9-2,5.7-2v0.9h0.5c0.7,0,1.1-0.3,1.1-0.9c-1,0-1.5-0.4-1.5-1.1c2-0.3,3.7-0.5,5.2-0.5
		c0.1,0.6,0.4,0.9,0.9,0.9v-0.5l-0.5-1.1c0.9,0,1.7-0.4,2.6-1.1h0.5c0.3,0,0.5,0.2,0.5,0.6l7.8-1.5v0.5
		C544.3,61.5,548.2,61,554.9,60.6z M498.1,150v0.5h1.1V150H498.1z M500.1,146.8h1.7v-0.9h-0.6C500.5,146,500.1,146.3,500.1,146.8z
		 M500.7,150v0.5h1.1V150H500.7z M502.3,146.4v1.1c1.7,0,2.6,0.4,2.6,1.1h0.9c0-1.1,0.6-1.7,1.7-1.7v-0.5c-2.4,0-3.7-0.2-3.7-0.5
		C503.2,146.2,502.7,146.4,502.3,146.4z M503.3,147.9l-0.6,2.1h1.5l-0.5-1.1c0.3,0,0.5-0.2,0.5-0.5L503.3,147.9z M502.7,153.1v1.1
		h0.6v-1.1H502.7z M503.3,151.6v0.5h0.9v-0.5H503.3z M504.9,153.1v1.1h0.9C505.8,153.5,505.5,153.1,504.9,153.1z M505.8,151.6v1.1
		c1.4,0,2.1,0.3,2.1,0.9h1.1l0.9-0.5c-0.3-0.7-0.5-1.2-0.5-1.5l-2.6,0.5L505.8,151.6z M513.6,154.2h-1.5l-6.3,0.5v0.5
		c2.1,0,3.2,0.5,3.2,1.5c3.8-1.2,5.7-2,5.7-2.5v-0.6L513.6,154.2z M506.4,148.5v0.5h1.5v-0.5H506.4z M507.5,145.3v0.6h0.9v-0.6
		H507.5z M508,146.4v1.1h0.5v-1.1H508z M508.4,157.3v1.1h0.6v-1.1H508.4z M510,145.9c0,1.4-0.2,2.8-0.5,4.1h0.5
		c1.7,0,2.6-0.5,2.6-1.5h0.6v1.5c2.8-1.2,4.1-2.1,4.1-2.6c-0.7,0-1.1-0.2-1.1-0.6l-1.1,0.6h-2.6v-0.6h1.1v-0.5h-1.5
		c0,0.3-0.2,0.5-0.5,0.5l0.5,1.1c0,0.7-0.4,1.1-1.1,1.1c0-0.2-0.2-1.3-0.5-3.1H510z M509.5,158.3v0.5c0.4,0,0.9,0.2,1.5,0.5h0.6
		v-0.5c-0.4,0-0.9-0.2-1.7-0.5H509.5z M510,162.9h0.6v1.1H510V162.9z M511.6,145.3v0.6h0.9v-0.6H511.6z M512.1,151v0.6
		c0.3,0.6,0.5,1.1,0.5,1.5h0.6V151H512.1z M512.6,163.4h1.5v1.1h-0.5C512.9,164.5,512.6,164.1,512.6,163.4z M513.2,144.8v1.1h0.5
		v-1.1H513.2z M513.6,152.1h1.1V151C514,151.1,513.6,151.5,513.6,152.1z M517.3,143.3c0,0.7-0.7,1.1-2.1,1.1v0.9
		c0.2,0,1.3,0.2,3.1,0.6c0-0.7-0.3-1.1-0.9-1.1l0.5-1.1v-0.5H517.3z M515.2,151.6v1.1h0.5v-1.1H515.2z M517.8,148.5v0.9h0.5v-0.9
		H517.8z M524.5,142.8v0.9h-0.6c-0.3,0-0.5-0.2-0.5-0.5c-2.4,0.5-3.7,1-3.7,1.5v0.5l3.2-0.9l0.5,0.9v0.6c-0.7,0-1.1,0.2-1.1,0.5
		c-0.3,0-0.5-0.2-0.5-0.5l-3.1,0.5l0.5,1.1l2.1-1.1l0.5,1.1c-0.6,0.3-1.6,0.5-3.1,0.5v1.1l7.7-1.5v-1.1l-2.6,0.5v-0.9h1.5v-0.6h-0.9
		c0-0.7,0.2-1.4,0.5-2v-0.5H524.5z M518.8,143.3v1.1h0.5v-1.1H518.8z M519.3,74.5v1.1h1.1v-1.1H519.3z M519.3,160.3h2.6v0.5
		l-2.6,0.6V160.3z M520.4,156.7v0.6h1.1v-0.6H520.4z M520.8,152.6h1.1v-1.1C521.2,151.7,520.8,152,520.8,152.6z M521.4,142.2v0.6
		h0.9v-0.6H521.4z M522.4,151.6v1.1c0.6-0.4,1.3-0.6,2.1-0.6v-0.5H522.4z M524.5,141.2v0.6h0.9v-0.6H524.5z M557.1,132.4l-1.1-0.5
		c-1.3,1.3-4.1,2.8-8.3,4.6c0.4,0.7,0.6,1.2,0.6,1.5h-0.6l-2.6-1.1c-0.6,1.4-1.7,2.1-3.1,2.1l0.6,1.1l-1.1,0.5h-0.5v-1.1h-0.6
		c0,1.4-2.4,2.8-7.2,4.1c-1.7,0-2.6-0.3-2.6-0.9c-0.6,0.3-1.1,0.5-1.5,0.5h-0.5v-0.5c2.4-0.9,3.5-1.6,3.5-2.1l-5.7,1.5v0.6l1.1,1.5
		c-0.3,0-0.5,0.2-0.5,0.5l0.9,0.5v-0.9h0.6c0.3,0,0.5,0.2,0.5,0.5l1.1-0.5c1.7,0.1,2.6,0.4,2.6,0.9c2,0,5-1.2,9.2-3.5
		c0,0.3,0.2,0.5,0.6,0.5c0-0.6,1.2-1.2,3.5-2c0.7,0.3,1.2,0.5,1.5,0.5l-0.5-1.1c1.8-0.6,3.4-1.5,4.6-2.6c0,0.4,0.2,0.6,0.6,0.6
		c0-0.5,3.1-2.4,9.2-5.7c0.9-1.7,1.7-2.6,2.1-2.6c0,0.3,0.2,0.5,0.5,0.5l0.5-0.9l-0.9-0.6h-0.6C559.1,129,557.1,130.4,557.1,132.4z
		 M527.1,146.8h0.9c0.7,0,1.1-0.3,1.1-0.9v-0.6C527.8,145.9,527.1,146.4,527.1,146.8z M528.1,147.9v0.6h1.1v-0.6H528.1z
		 M529.1,151.6c0.7,0.1,1.1,0.4,1.1,1.1h-1.1V151.6z M529.1,156.2h1.5v0.5h-1.5V156.2z M529.6,139.6v0.6h1.1v-0.6H529.6z
		 M529.6,145.3v1.1h0.6v-1.1H529.6z M532.8,140.2v0.5h1.5l0.5-1.1h-0.5C533.6,140,533.1,140.2,532.8,140.2z M534.8,137.6v0.5h2.6
		V137L534.8,137.6z M541.6,145.9v0.5c0,0.8-1.2,1.3-3.7,1.5C538.4,146.6,539.7,145.9,541.6,145.9z M538.5,137v1.7h0.5
		c0.7,0,1.1-0.4,1.1-1.1C539.6,137.6,539.1,137.4,538.5,137z M542,136.6v1.1h0.6c0.6,0,0.9-0.4,0.9-1.1v-0.5
		C542.9,136.4,542.4,136.6,542,136.6z M542.6,145.3h1.5c0,0.7-0.4,1.1-1.1,1.1h-0.5V145.3z M544.2,144.8h0.9v0.5h-0.9V144.8z
		 M546.2,133c0.2,0.6,0.5,0.9,1.1,0.9l-0.5,1.1v0.5h0.9V133H546.2z M547.2,143.3h1.1c0,0.7-0.4,1.1-1.1,1.1V143.3z M550.3,144.4h0.5
		c1.7,0.8,2.6,1.3,2.6,1.5l3.2-1.5c2.4,0,3.5,0.3,3.5,0.9c-0.3,0.7-0.5,1.2-0.5,1.5l-1.1-0.5c0,0.3-0.2,0.5-0.5,0.5l-0.6-2
		c-0.9,0.8-2.6,1.5-5.1,2v0.6h1.5c0.6-0.4,1.1-0.6,1.5-0.6v1.1l-2.1,0.6c0-0.4-0.2-0.6-0.5-0.6c0,2.1-0.5,3.1-1.5,3.1v-0.5
		c0.3-0.6,0.5-1.3,0.5-2l-1.5,0.9h-1.5v0.6h-0.5l-1.1-0.6c0.3-0.6,0.5-1.2,0.5-2l1.5,1.1c0.7-0.4,1.2-0.6,1.5-0.6v-0.5l-0.5-1.1
		c0.7,0,1.1-0.4,1.1-1.1h-1.1V144.4z M548.8,133l-0.5,0.9l0.9,0.6l0.6-1.1L548.8,133z M550.3,132.4v1.5h0.5v-1.5H550.3z
		 M552.9,142.8h0.5c0,0.6-0.3,0.9-0.9,0.9h-0.6C552,143.1,552.4,142.8,552.9,142.8z M554.9,137v0.6h1.7l0.5-1.1h-0.5
		C555.9,136.9,555.3,137,554.9,137z M554.9,138.7v0.5h1.1v-0.5H554.9z M557.1,137.6v1.1h0.5v-1.1H557.1z M558.1,143.3h0.9v0.5h-0.9
		V143.3z M558.6,136.6v1.1h0.5v-1.1H558.6z M559.1,142.8h1.1v0.5h-1.1V142.8z M560.6,134v0.6h1.7V134H560.6z M561.7,144.4h0.6
		c0,0.6-0.4,0.9-1.1,0.9h-0.6C560.8,144.7,561.1,144.4,561.7,144.4z M563.2,137h0.6c0,0.7-0.4,1.1-1.1,1.1h-0.5
		C562.3,137.4,562.7,137,563.2,137z M562.7,143.3h1.1v0.5h-1.1V143.3z M564.8,127.2v0.6h1.1v-0.6H564.8z M565.3,125.7v0.6h1.1v-0.6
		H565.3z M566.9,126.3v0.9h0.5v-0.9H566.9z M568.9,133v0.5h0.6c0.7-0.2,1.4-1,2-2.6H571C570.5,130.9,569.8,131.6,568.9,133z
		 M570,137.6h1.1v1.1H570V137.6z M572.6,130.9v1.1h0.5v-1.1H572.6z M574.1,136.1h0.5v0.9h-0.5V136.1z"/>
</g>
</svg>
